<?xml version="1.0" encoding="UTF-8" standalone="no"?>
<svg
   viewBox="0 0 787.83 964.21"
   version="1.1"
   id="svg548"
   sodipodi:docname="chart1.svg"
   inkscape:version="1.2.1 (9c6d41e, 2022-07-14)"
   xmlns:inkscape="http://www.inkscape.org/namespaces/inkscape"
   xmlns:sodipodi="http://sodipodi.sourceforge.net/DTD/sodipodi-0.dtd"
   xmlns="http://www.w3.org/2000/svg"
   xmlns:svg="http://www.w3.org/2000/svg">
  <defs
     id="defs552" />
  <sodipodi:namedview
     id="namedview550"
     pagecolor="#ffffff"
     bordercolor="#000000"
     borderopacity="0.25"
     inkscape:showpageshadow="2"
     inkscape:pageopacity="0.0"
     inkscape:pagecheckerboard="0"
     inkscape:deskcolor="#d1d1d1"
     showgrid="false"
     inkscape:zoom="1.6339116"
     inkscape:cx="235.93688"
     inkscape:cy="233.48877"
     inkscape:window-width="1440"
     inkscape:window-height="777"
     inkscape:window-x="0"
     inkscape:window-y="25"
     inkscape:window-maximized="0"
     inkscape:current-layer="ISR" />
  <g
     data-name="Layer 2"
     id="g546">
    <g
       data-name="Layer 1"
       id="g205">
      <rect
         x="43.83"
         y="38.15"
         width="62"
         height="32"
         style="fill:#c35414"
         id="rect9" />
      <rect
         x="105.83"
         y="38.15"
         width="62"
         height="32"
         style="fill:#c35414"
         id="rect11" />
      <rect
         x="167.83"
         y="38.15"
         width="62"
         height="32"
         style="fill:#c35414"
         id="rect13" />
      <rect
         x="229.83"
         y="38.15"
         width="62"
         height="32"
         style="fill:#d3a522"
         id="rect15" />
      <rect
         x="291.83"
         y="38.15"
         width="62"
         height="32"
         style="fill:#d3a522"
         id="rect17" />
      <rect
         x="353.83"
         y="38.15"
         width="62"
         height="32"
         style="fill:#d3a522"
         id="rect19" />
      <rect
         x="415.83"
         y="38.15"
         width="62"
         height="32"
         style="fill:#ffd139"
         id="rect21" />
      <rect
         x="477.83"
         y="38.15"
         width="62"
         height="32"
         style="fill:#ffd139"
         id="rect23" />
      <rect
         x="539.99"
         y="38.15"
         width="62"
         height="32"
         style="fill:#ffd139"
         id="rect25" />
      <rect
         x="601.68"
         y="38.15"
         width="62"
         height="32"
         style="fill:#ffe89c"
         id="rect27" />
      <rect
         x="663.68"
         y="38.15"
         width="62"
         height="32"
         style="fill:#ffe89c"
         id="rect29" />
      <rect
         x="725.83"
         y="38.15"
         width="62"
         height="32"
         style="fill:#ffe89c"
         id="rect31" />
      <path
         d="M92.14,99.9V96h3.78V95H92.14V92.09H97v-1h-6V99.9Zm9.91-2.17a1.76,1.76,0,0,1-1.88,1.43,2,2,0,0,1-2-2H103v-.46a2.82,2.82,0,0,0-2.94-3.06A3.12,3.12,0,0,0,97,96.93a3,3,0,0,0,3.15,3.14A2.71,2.71,0,0,0,103,97.84ZM98.2,96.37a2,2,0,0,1,1.9-1.87,1.75,1.75,0,0,1,1.75,1.87Zm7.19.3a1.94,1.94,0,0,1,2-2.12c1.2,0,1.86.9,1.86,2.3s-.66,2.29-1.86,2.29a1.93,1.93,0,0,1-2-2.12Zm0,2a2.27,2.27,0,0,0,2.21,1.44c1.82,0,2.81-1.42,2.81-3.22s-1-3.24-2.8-3.24a2.27,2.27,0,0,0-2.2,1.46v-4h-1.16V99.9h.88Z"
         id="path33" />
      <path
         d="M61,51.74a4.38,4.38,0,1,0-8.76,0,4.28,4.28,0,0,0,4.38,4.58,4.43,4.43,0,0,0,2.56-.77l.86.92.7-.6-.86-.94A4.77,4.77,0,0,0,61,51.74Zm-1.26,0a4.14,4.14,0,0,1-.61,2.35l-1-1.06-.72.61,1,1.12a3.12,3.12,0,0,1-1.85.54c-1.9,0-3.13-1.4-3.13-3.56s1.23-3.54,3.13-3.54S59.78,49.58,59.78,51.74Zm1.84-2.34h1.66v6.75h1.21V47.27H63.7a1.84,1.84,0,0,1-2.08,1.35Z"
         id="path35" />
      <path
         d="M246,51.74a4.38,4.38,0,1,0-8.76,0,4.28,4.28,0,0,0,4.38,4.58,4.43,4.43,0,0,0,2.56-.77l.86.92.7-.6-.86-.94A4.77,4.77,0,0,0,246,51.74Zm-1.26,0a4.14,4.14,0,0,1-.61,2.35L243.22,53l-.72.61,1,1.12a3.12,3.12,0,0,1-1.85.54c-1.9,0-3.13-1.4-3.13-3.56s1.23-3.54,3.13-3.54S244.78,49.58,244.78,51.74Zm3.94,3.36,1.67-1.37c1.27-1,2.63-2.27,2.63-3.87s-.94-2.7-3-2.7a2.84,2.84,0,0,0-3.1,3,4,4,0,0,0,.1.83l1.2,0a3.07,3.07,0,0,1-.09-.8A1.79,1.79,0,0,1,250,48.16a1.61,1.61,0,0,1,1.75,1.76c0,1.29-1,2.18-2.42,3.39l-2.49,2.14v.7h6.48v-1Z"
         id="path37" />
      <path
         d="M618.2,51.74a4.38,4.38,0,1,0-8.76,0,4.28,4.28,0,0,0,4.38,4.58,4.43,4.43,0,0,0,2.56-.77l.85.92.7-.6-.85-.94A4.77,4.77,0,0,0,618.2,51.74Zm-1.26,0a4.06,4.06,0,0,1-.62,2.35l-1-1.06-.71.61,1,1.12a3.12,3.12,0,0,1-1.85.54c-1.91,0-3.14-1.4-3.14-3.56s1.23-3.54,3.14-3.54S616.94,49.58,616.94,51.74Zm7.75-4.41h-1.47l-4.36,5.32V53.8h4.64v2.35h1.19V53.8h1.51v-1h-1.51Zm-1.19,1.09V52.8h-3.59Z"
         id="path39" />
      <path
         d="M432,51.74a4.38,4.38,0,1,0-8.76,0,4.28,4.28,0,0,0,4.38,4.58,4.43,4.43,0,0,0,2.56-.77l.86.92.7-.6-.86-.94A4.77,4.77,0,0,0,432,51.74Zm-1.26,0a4.14,4.14,0,0,1-.61,2.35L429.22,53l-.72.61,1,1.12a3.12,3.12,0,0,1-1.85.54c-1.9,0-3.13-1.4-3.13-3.56s1.23-3.54,3.13-3.54S430.78,49.58,430.78,51.74Zm7.36,2c0,1.05-.8,1.61-1.95,1.61A2,2,0,0,1,434,53.22l-1.19,0c0,2,1.29,3.15,3.39,3.15,1.95,0,3.18-1,3.18-2.51a2.09,2.09,0,0,0-1.89-2.11,2.06,2.06,0,0,0,1.71-2.05c0-1.48-1.08-2.49-3-2.49a3,3,0,0,0-3.2,3.15l1.17,0a2,2,0,0,1,2-2.21c1.22,0,1.83.66,1.83,1.61,0,1.14-.85,1.51-1.78,1.51a5.88,5.88,0,0,1-.84,0v1a6.08,6.08,0,0,1,.84,0C437.3,52.17,438.14,52.72,438.14,53.73Z"
         id="path41" />
      <path
         d="M46.07,98.85l1.67-1.37c1.27-1,2.63-2.27,2.63-3.87s-.94-2.7-3-2.7a2.84,2.84,0,0,0-3.09,3,4,4,0,0,0,.1.83l1.2.05a3.08,3.08,0,0,1-.1-.8,1.8,1.8,0,0,1,1.88-2,1.61,1.61,0,0,1,1.75,1.76c0,1.29-1,2.18-2.42,3.39L44.2,99.2v.7h6.48V98.85Zm12.61-3.36c0-2.93-1.35-4.58-3.66-4.58s-3.66,1.65-3.66,4.58,1.35,4.58,3.66,4.58S58.68,98.42,58.68,95.49Zm-1.27,0c0,2.39-.77,3.6-2.39,3.6s-2.4-1.21-2.4-3.6.77-3.6,2.4-3.6S57.41,93.1,57.41,95.49Zm4,3.36L63,97.48c1.27-1,2.63-2.27,2.63-3.87s-.94-2.7-3-2.7a2.84,2.84,0,0,0-3.09,3,4,4,0,0,0,.1.83l1.2.05a3.08,3.08,0,0,1-.1-.8,1.8,1.8,0,0,1,1.88-2,1.61,1.61,0,0,1,1.75,1.76c0,1.29-1,2.18-2.42,3.39l-2.5,2.14v.7H66V98.85Zm5.05-5.7h1.65V99.9h1.22V91h-.8a1.83,1.83,0,0,1-2.07,1.35Z"
         id="path43" />
      <path
         d="M172.82,99.9l2.57-7.59h.06V99.9h1.21V91.08h-1.91l-2.35,7.18h-.05l-2.48-7.18h-1.94V99.9h1.13V92.31h.06l2.67,7.59Zm9.25-2.73a1.89,1.89,0,0,1-1.9,2c-.7,0-1-.39-1-.91,0-.74.61-.92,1.58-1.13l1.37-.29ZM183.19,96a2.16,2.16,0,0,0-2.45-2.34,2.47,2.47,0,0,0-2.59,2l1,.14a1.49,1.49,0,0,1,1.54-1.23,1.24,1.24,0,0,1,1.34,1.36v.24l-1.65.33c-1.47.3-2.46.77-2.46,1.93s.77,1.7,2,1.7a2.4,2.4,0,0,0,2.19-1.25,1.22,1.22,0,0,0,2.09.84V99a1.14,1.14,0,0,1-.53.14.43.43,0,0,1-.48-.47Zm5.69-2.06a1.28,1.28,0,0,0-.87-.28A1.94,1.94,0,0,0,186.27,95V93.78h-1.16V99.9h1.16V96.67c0-1.18.66-2,1.55-2a1.8,1.8,0,0,1,1,.25Z"
         id="path45" />
      <path
         d="M233.6,91.08,230,99.9h1.19l1-2.59h4l1.07,2.59h1.29l-3.67-8.82Zm.59,1.34h.05l1.61,3.92H232.6Zm6.5,4.25a1.94,1.94,0,0,1,2-2.12c1.21,0,1.86.9,1.86,2.3s-.65,2.29-1.86,2.29a1.94,1.94,0,0,1-2-2.12Zm0,2a2.27,2.27,0,0,0,2.2,1.44c1.8,0,2.8-1.42,2.8-3.22s-1-3.24-2.8-3.24a2.27,2.27,0,0,0-2.2,1.46V93.78h-1.16v8.47h1.16Zm10-4.74a1.27,1.27,0,0,0-.86-.28A1.92,1.92,0,0,0,248.09,95V93.78h-1.16V99.9h1.16V96.67c0-1.18.66-2,1.54-2a1.78,1.78,0,0,1,1,.25Z"
         id="path47" />
      <path
         d="M296.57,99.9l2.58-7.59h.05V99.9h1.22V91.08H298.5l-2.35,7.18h0l-2.48-7.18h-1.94V99.9h1.13V92.31h.06l2.67,7.59Zm9.26-2.73a1.9,1.9,0,0,1-1.91,2c-.69,0-1.05-.39-1.05-.91,0-.74.62-.92,1.59-1.13l1.37-.29ZM307,96a2.16,2.16,0,0,0-2.45-2.34,2.47,2.47,0,0,0-2.59,2l1,.14a1.48,1.48,0,0,1,1.54-1.23,1.24,1.24,0,0,1,1.34,1.36v.24l-1.65.33c-1.47.3-2.47.77-2.47,1.93s.77,1.7,2,1.7a2.4,2.4,0,0,0,2.2-1.25A1.19,1.19,0,0,0,307,100a1.21,1.21,0,0,0,.94-.37V99a1.14,1.14,0,0,1-.54.14.42.42,0,0,1-.47-.47Zm3.7,6.3,3.53-8.47H313l-1.87,4.71h-.06l-1.94-4.71h-1.22l2.57,6.11-1,2.36Z"
         id="path49" />
      <path
         d="M356,91.08v5.78c0,1.49-.6,2.21-1.85,2.21s-1.94-.85-2-2.28l-1.15.07a3,3,0,0,0,3.17,3.21,2.85,2.85,0,0,0,3.08-3.18V91.08Zm6.85,6.22a1.68,1.68,0,0,1-1.62,1.86c-1,0-1.41-.66-1.41-1.68v-3.7h-1.16v3.81c0,1.43.59,2.48,2.18,2.48a2.14,2.14,0,0,0,2-1.25V99.9H364V93.78H362.8Zm3.92-.91a1.69,1.69,0,0,1,1.65-1.85c1,0,1.46.64,1.46,1.66v3.7H371V96.11c0-1.43-.65-2.5-2.24-2.5a2.17,2.17,0,0,0-2,1.26V93.78h-1.16V99.9h1.16Z"
         id="path51" />
      <path
         d="M417.64,91.08v5.78c0,1.49-.6,2.21-1.85,2.21s-1.94-.85-2-2.28l-1.15.07a3,3,0,0,0,3.17,3.21,2.85,2.85,0,0,0,3.08-3.18V91.08Zm6.84,6.22a1.67,1.67,0,0,1-1.61,1.86c-1,0-1.41-.66-1.41-1.68v-3.7H420.3v3.81c0,1.43.59,2.48,2.18,2.48a2.11,2.11,0,0,0,2-1.25V99.9h1.17V93.78h-1.17Zm2.76-6.22V99.9h1.17V91.08Z"
         id="path53" />
      <path
         d="M479.2,91.08l-3.6,8.82h1.19l1-2.59h4l1.06,2.59h1.29l-3.67-8.82Zm.59,1.34h0l1.61,3.92h-3.24Zm9.4,4.88a1.67,1.67,0,0,1-1.61,1.86c-1,0-1.41-.66-1.41-1.68v-3.7H485v3.81c0,1.43.59,2.48,2.18,2.48a2.12,2.12,0,0,0,2-1.25V99.9h1.17V93.78h-1.17Zm7.8-1.6a2,2,0,0,0-.29-1,2.92,2.92,0,0,1,1.18-.25v-1a1.88,1.88,0,0,0-1.56.84,3,3,0,0,0-1.92-.63c-1.49,0-2.56.8-2.56,2.09a1.89,1.89,0,0,0,.8,1.58,1.29,1.29,0,0,0-.92,1.15,1.07,1.07,0,0,0,.81,1,1.33,1.33,0,0,0-1.26,1.29c0,1.13,1.37,1.65,3,1.65,1.82,0,3.53-.59,3.53-2.11,0-1-.7-1.66-2-1.66H493.4c-.54,0-.75-.19-.75-.53a.73.73,0,0,1,.41-.6,3.3,3.3,0,0,0,1.34.25C495.92,97.77,497,97,497,95.7Zm-4.62,4.84c0-.65.55-.86,1.18-.86h2c.72,0,1.18.19,1.18.75,0,.88-1,1.22-2.41,1.22C493.16,101.65,492.37,101.31,492.37,100.54Zm3.45-4.83a1.4,1.4,0,1,1-1.4-1.34A1.25,1.25,0,0,1,495.82,95.71Z"
         id="path55" />
      <path
         d="M539.9,96.75c0,2.13,1.58,3.32,3.75,3.32,1.9,0,3.3-.94,3.3-2.56,0-1.42-.81-2.12-2.42-2.43l-1.59-.3c-1-.2-1.6-.48-1.6-1.35s.71-1.58,2-1.58a2.17,2.17,0,0,1,2.38,2.28l1.1,0c0-2-1.29-3.17-3.5-3.17-1.93,0-3.15,1-3.15,2.59,0,1.37.9,2.07,2.2,2.33l1.75.33c1.15.23,1.68.62,1.68,1.43,0,1-.83,1.53-2.14,1.53A2.43,2.43,0,0,1,541,96.68Zm13,1a1.76,1.76,0,0,1-1.88,1.43,2,2,0,0,1-2-2h4.87v-.46A2.82,2.82,0,0,0,551,93.61a3.12,3.12,0,0,0-3.09,3.32,3,3,0,0,0,3.15,3.14,2.71,2.71,0,0,0,2.85-2.23Zm-3.85-1.36A2,2,0,0,1,551,94.5a1.75,1.75,0,0,1,1.75,1.87Zm7.18.3a1.94,1.94,0,0,1,2-2.12c1.21,0,1.87.9,1.87,2.3s-.66,2.29-1.87,2.29a1.94,1.94,0,0,1-2-2.12Zm0,2a2.27,2.27,0,0,0,2.2,1.44c1.81,0,2.8-1.42,2.8-3.22s-1-3.24-2.8-3.24a2.27,2.27,0,0,0-2.2,1.46V93.78h-1.16v8.47h1.16Zm6.42-.16c0,1.19.61,1.6,1.48,1.6a2.4,2.4,0,0,0,1.57-.52v-.78a2.54,2.54,0,0,1-1.15.36c-.53,0-.75-.25-.75-.8V94.62h1.72v-.84h-1.72V92.09h-.66l-.18.85c-.14.59-.27.87-.84,1l-.4.07v.63h.93Z"
         id="path57" />
      <path
         d="M610.49,95.49a4.38,4.38,0,1,0-4.38,4.58A4.29,4.29,0,0,0,610.49,95.49Zm-1.26,0c0,2.16-1.22,3.54-3.12,3.54S603,97.65,603,95.49,604.2,92,606.11,92,609.23,93.33,609.23,95.49Zm2.17,1.36a3,3,0,0,0,3.14,3.22,2.75,2.75,0,0,0,2.89-2.68l-1-.09a1.82,1.82,0,0,1-1.87,1.84c-1.15,0-1.93-.88-1.93-2.29s.78-2.3,1.93-2.3a1.79,1.79,0,0,1,1.87,1.81l1-.07a2.76,2.76,0,0,0-2.89-2.68A3,3,0,0,0,611.4,96.85Zm7.43,1.62c0,1.19.61,1.6,1.48,1.6a2.38,2.38,0,0,0,1.57-.52v-.78a2.5,2.5,0,0,1-1.15.36c-.53,0-.75-.25-.75-.8V94.62h1.72v-.84H620V92.09h-.66l-.18.85c-.14.59-.27.87-.84,1l-.4.07v.63h.93Z"
         id="path59" />
      <path
         d="M665.39,91.08h-1.26V99.9h1.14V92.82l5.12,7.08h1V91.08h-1.14v6.75Zm8.41,5.77c0-1.37.69-2.33,1.92-2.33s1.95,1,1.95,2.33-.7,2.32-1.95,2.32S673.8,98.21,673.8,96.85Zm5.06,0a3.13,3.13,0,1,0-3.14,3.22A3.07,3.07,0,0,0,678.86,96.85Zm4,3.05,2.52-6.12h-1.13l-1.86,4.71h-.06l-1.9-4.71h-1.22l2.52,6.12Z"
         id="path61" />
      <path
         d="M725.63,98.91V92.07h1.91a3.42,3.42,0,0,1,0,6.84Zm-1.21,1h3.19c2.77,0,4.52-1.65,4.52-4.41s-1.75-4.41-4.52-4.41h-3.19Zm13.65-2.17a1.75,1.75,0,0,1-1.87,1.43,2,2,0,0,1-2-2h4.87v-.46a2.83,2.83,0,0,0-2.94-3.06,3.12,3.12,0,0,0-3.1,3.32,3,3,0,0,0,3.15,3.14A2.72,2.72,0,0,0,739,97.84Zm-3.85-1.36a2,2,0,0,1,1.91-1.87,1.75,1.75,0,0,1,1.75,1.87Zm5.71.48a3,3,0,0,0,3.13,3.22,2.73,2.73,0,0,0,2.88-2.68l-1-.09a1.82,1.82,0,0,1-1.87,1.84c-1.15,0-1.93-.88-1.93-2.29s.78-2.3,1.93-2.3a1.79,1.79,0,0,1,1.87,1.81l1-.07a2.74,2.74,0,0,0-2.88-2.68A3,3,0,0,0,739.93,96.85Z"
         id="path63" />
      <line
         x1="106.33"
         y1="70.15"
         x2="106.33"
         y2="86.15"
         style="fill:none;stroke:#000"
         id="line65" />
      <line
         x1="44.33"
         y1="70.15"
         x2="44.33"
         y2="86.15"
         style="fill:none;stroke:#000"
         id="line67" />
      <line
         x1="168.33"
         y1="70.15"
         x2="168.33"
         y2="86.15"
         style="fill:none;stroke:#000"
         id="line69" />
      <line
         x1="478.33"
         y1="70.15"
         x2="478.33"
         y2="86.15"
         style="fill:none;stroke:#000"
         id="line71" />
      <line
         x1="540.33"
         y1="70.15"
         x2="540.33"
         y2="86.15"
         style="fill:none;stroke:#000"
         id="line73" />
      <line
         x1="230.33"
         y1="70.15"
         x2="230.33"
         y2="86.15"
         style="fill:none;stroke:#000"
         id="line75" />
      <line
         x1="602.49"
         y1="70.15"
         x2="602.49"
         y2="86.15"
         style="fill:none;stroke:#000"
         id="line77" />
      <line
         x1="354.33"
         y1="70.15"
         x2="354.33"
         y2="86.15"
         style="fill:none;stroke:#000"
         id="line79" />
      <line
         x1="292.33"
         y1="70.15"
         x2="292.33"
         y2="86.15"
         style="fill:none;stroke:#000"
         id="line81" />
      <line
         x1="664.18"
         y1="70.15"
         x2="664.18"
         y2="86.15"
         style="fill:none;stroke:#000"
         id="line83" />
      <line
         x1="726.18"
         y1="70.15"
         x2="726.18"
         y2="86.15"
         style="fill:none;stroke:#000"
         id="line85" />
      <line
         x1="416.33"
         y1="70.51"
         x2="416.33"
         y2="84.51"
         style="fill:none;stroke:#000"
         id="line87" />
      <line
         x1="43.83"
         y1="69.65"
         x2="787.83"
         y2="69.65"
         style="fill:none;stroke:#000"
         id="line89" />
      <rect
         x="43.83"
         y="899.94"
         width="62"
         height="32"
         style="fill:#c35414"
         id="rect91" />
      <rect
         x="105.83"
         y="899.94"
         width="62"
         height="32"
         style="fill:#c35414"
         id="rect93" />
      <rect
         x="167.83"
         y="899.94"
         width="62"
         height="32"
         style="fill:#c35414"
         id="rect95" />
      <rect
         x="229.83"
         y="899.94"
         width="62"
         height="32"
         style="fill:#d3a522"
         id="rect97" />
      <rect
         x="291.83"
         y="899.94"
         width="62"
         height="32"
         style="fill:#d3a522"
         id="rect99" />
      <rect
         x="353.83"
         y="899.94"
         width="62"
         height="32"
         style="fill:#d3a522"
         id="rect101" />
      <rect
         x="415.83"
         y="899.94"
         width="62"
         height="32"
         style="fill:#ffd139"
         id="rect103" />
      <rect
         x="477.83"
         y="899.94"
         width="62"
         height="32"
         style="fill:#ffd139"
         id="rect105" />
      <rect
         x="539.99"
         y="899.94"
         width="62"
         height="32"
         style="fill:#ffd139"
         id="rect107" />
      <rect
         x="601.68"
         y="899.94"
         width="62"
         height="32"
         style="fill:#ffe89c"
         id="rect109" />
      <rect
         x="663.68"
         y="899.94"
         width="62"
         height="32"
         style="fill:#ffe89c"
         id="rect111" />
      <rect
         x="725.83"
         y="899.94"
         width="62"
         height="32"
         style="fill:#ffe89c"
         id="rect113" />
      <path
         d="M92.14,961.69v-3.88h3.78v-1H92.14v-2.92H97v-1h-6v8.82Zm9.91-2.17a1.76,1.76,0,0,1-1.88,1.43,2,2,0,0,1-2-2H103v-.47a2.82,2.82,0,0,0-2.94-3.05A3.12,3.12,0,0,0,97,958.72a3,3,0,0,0,3.15,3.14,2.71,2.71,0,0,0,2.85-2.23Zm-3.85-1.36a2,2,0,0,1,1.9-1.88,1.76,1.76,0,0,1,1.75,1.88Zm7.19.29a1.93,1.93,0,0,1,2-2.11c1.2,0,1.86.9,1.86,2.3s-.66,2.29-1.86,2.29a1.93,1.93,0,0,1-2-2.12Zm0,2a2.27,2.27,0,0,0,2.21,1.44c1.82,0,2.81-1.42,2.81-3.22s-1-3.24-2.8-3.24a2.27,2.27,0,0,0-2.2,1.46v-4h-1.16v8.82h.88Z"
         id="path115" />
      <path
         d="M61,913.53a4.38,4.38,0,1,0-4.38,4.58,4.43,4.43,0,0,0,2.56-.77l.86.92.7-.6-.86-.94A4.77,4.77,0,0,0,61,913.53Zm-1.26,0a4.14,4.14,0,0,1-.61,2.35l-1-1.06-.72.61,1,1.12a3.11,3.11,0,0,1-1.85.53c-1.9,0-3.13-1.39-3.13-3.55S54.76,910,56.66,910,59.78,911.37,59.78,913.53Zm1.84-2.34h1.66v6.75h1.21v-8.88H63.7a1.84,1.84,0,0,1-2.08,1.35Z"
         id="path117" />
      <path
         d="M246,913.53a4.38,4.38,0,1,0-4.38,4.58,4.43,4.43,0,0,0,2.56-.77l.86.92.7-.6-.86-.94A4.77,4.77,0,0,0,246,913.53Zm-1.26,0a4.14,4.14,0,0,1-.61,2.35l-.95-1.06-.72.61,1,1.12a3.11,3.11,0,0,1-1.85.53c-1.9,0-3.13-1.39-3.13-3.55s1.23-3.54,3.13-3.54S244.78,911.37,244.78,913.53Zm3.94,3.36,1.67-1.37c1.27-1,2.63-2.27,2.63-3.87s-.94-2.7-3-2.7a2.84,2.84,0,0,0-3.1,3,4.08,4.08,0,0,0,.1.83l1.2,0a3.12,3.12,0,0,1-.09-.8c0-1.29.67-2,1.87-2a1.61,1.61,0,0,1,1.75,1.76c0,1.29-1,2.18-2.42,3.39l-2.49,2.14v.7h6.48v-1.05Z"
         id="path119" />
      <path
         d="M618.2,913.53a4.38,4.38,0,1,0-4.38,4.58,4.43,4.43,0,0,0,2.56-.77l.85.92.7-.6-.85-.94A4.77,4.77,0,0,0,618.2,913.53Zm-1.26,0a4.06,4.06,0,0,1-.62,2.35l-1-1.06-.71.61,1,1.12a3.11,3.11,0,0,1-1.85.53c-1.91,0-3.14-1.39-3.14-3.55s1.23-3.54,3.14-3.54S616.94,911.37,616.94,913.53Zm7.75-4.41h-1.47l-4.36,5.32v1.15h4.64v2.35h1.19v-2.35h1.51v-1h-1.51Zm-1.19,1.09v4.38h-3.59Z"
         id="path121" />
      <path
         d="M432,913.53a4.38,4.38,0,1,0-4.38,4.58,4.43,4.43,0,0,0,2.56-.77l.86.92.7-.6-.86-.94A4.77,4.77,0,0,0,432,913.53Zm-1.26,0a4.14,4.14,0,0,1-.61,2.35l-.95-1.06-.72.61,1,1.12a3.11,3.11,0,0,1-1.85.53c-1.9,0-3.13-1.39-3.13-3.55s1.23-3.54,3.13-3.54S430.78,911.37,430.78,913.53Zm7.36,2c0,1.05-.8,1.61-1.95,1.61A2,2,0,0,1,434,915l-1.19,0c0,2,1.29,3.15,3.39,3.15,1.95,0,3.18-1,3.18-2.51a2.09,2.09,0,0,0-1.89-2.11,2.06,2.06,0,0,0,1.71-2c0-1.48-1.08-2.49-3-2.49a3,3,0,0,0-3.2,3.15l1.17,0a2,2,0,0,1,2-2.21c1.22,0,1.83.66,1.83,1.61,0,1.14-.85,1.51-1.78,1.51a5.88,5.88,0,0,1-.84,0v1a6.08,6.08,0,0,1,.84,0C437.3,914,438.14,914.51,438.14,915.52Z"
         id="path123" />
      <path
         d="M46.07,960.64l1.67-1.37c1.27-1,2.63-2.27,2.63-3.87s-.94-2.7-3-2.7a2.84,2.84,0,0,0-3.09,3,4.08,4.08,0,0,0,.1.83l1.2,0a3.13,3.13,0,0,1-.1-.8,1.8,1.8,0,0,1,1.88-2,1.61,1.61,0,0,1,1.75,1.76c0,1.29-1,2.18-2.42,3.39L44.2,961v.7h6.48v-1.05Zm12.61-3.36c0-2.93-1.35-4.58-3.66-4.58s-3.66,1.65-3.66,4.58,1.35,4.58,3.66,4.58S58.68,960.2,58.68,957.28Zm-1.27,0c0,2.39-.77,3.6-2.39,3.6s-2.4-1.21-2.4-3.6.77-3.6,2.4-3.6S57.41,954.88,57.41,957.28Zm4,3.36L63,959.27c1.27-1,2.63-2.27,2.63-3.87s-.94-2.7-3-2.7a2.84,2.84,0,0,0-3.09,3,4.08,4.08,0,0,0,.1.83l1.2,0a3.13,3.13,0,0,1-.1-.8,1.79,1.79,0,0,1,1.88-2,1.61,1.61,0,0,1,1.75,1.76c0,1.29-1,2.18-2.42,3.39L59.49,961v.7H66v-1.05Zm5.05-5.7h1.65v6.75h1.22v-8.88h-.8a1.83,1.83,0,0,1-2.07,1.35Z"
         id="path125" />
      <path
         d="M172.82,961.69l2.57-7.59h.06v7.59h1.21v-8.82h-1.91l-2.35,7.18h-.05l-2.48-7.18h-1.94v8.82h1.13V954.1h.06l2.67,7.59Zm9.25-2.73a1.89,1.89,0,0,1-1.9,2c-.7,0-1-.39-1-.91,0-.74.61-.92,1.58-1.13l1.37-.29Zm1.12-1.22a2.16,2.16,0,0,0-2.45-2.34,2.47,2.47,0,0,0-2.59,2l1,.14a1.49,1.49,0,0,1,1.54-1.23,1.24,1.24,0,0,1,1.34,1.36v.23l-1.65.34c-1.47.29-2.46.77-2.46,1.93s.77,1.7,2,1.7a2.41,2.41,0,0,0,2.19-1.25,1.22,1.22,0,0,0,2.09.84v-.63a1.14,1.14,0,0,1-.53.14.43.43,0,0,1-.48-.47Zm5.69-2.06a1.28,1.28,0,0,0-.87-.28,1.94,1.94,0,0,0-1.74,1.42v-1.25h-1.16v6.12h1.16v-3.24c0-1.17.66-2,1.55-2a1.8,1.8,0,0,1,1,.25Z"
         id="path127" />
      <path
         d="M233.6,952.87l-3.6,8.82h1.19l1-2.59h4l1.07,2.59h1.29l-3.67-8.82Zm.59,1.34h.05l1.61,3.92H232.6Zm6.5,4.24a1.94,1.94,0,0,1,2-2.11c1.21,0,1.86.9,1.86,2.3s-.65,2.29-1.86,2.29a1.94,1.94,0,0,1-2-2.12Zm0,2a2.27,2.27,0,0,0,2.2,1.44c1.8,0,2.8-1.42,2.8-3.22s-1-3.24-2.8-3.24a2.27,2.27,0,0,0-2.2,1.46v-1.29h-1.16V964h1.16Zm10-4.74a1.27,1.27,0,0,0-.86-.28,1.92,1.92,0,0,0-1.74,1.42v-1.25h-1.16v6.12h1.16v-3.24c0-1.17.66-2,1.54-2a1.78,1.78,0,0,1,1,.25Z"
         id="path129" />
      <path
         d="M296.57,961.69l2.58-7.59h.05v7.59h1.22v-8.82H298.5l-2.35,7.18h0l-2.48-7.18h-1.94v8.82h1.13V954.1h.06l2.67,7.59Zm9.26-2.73a1.9,1.9,0,0,1-1.91,2c-.69,0-1.05-.39-1.05-.91,0-.74.62-.92,1.59-1.13l1.37-.29Zm1.12-1.22a2.16,2.16,0,0,0-2.45-2.34,2.47,2.47,0,0,0-2.59,2l1,.14a1.48,1.48,0,0,1,1.54-1.23,1.24,1.24,0,0,1,1.34,1.36v.23l-1.65.34c-1.47.29-2.47.77-2.47,1.93s.77,1.7,2,1.7a2.42,2.42,0,0,0,2.2-1.25,1.19,1.19,0,0,0,1.15,1.21,1.21,1.21,0,0,0,.94-.37v-.63a1.14,1.14,0,0,1-.54.14.42.42,0,0,1-.47-.47Zm3.7,6.3,3.53-8.47H313l-1.87,4.7h-.06l-1.94-4.7h-1.22l2.57,6.11-1,2.36Z"
         id="path131" />
      <path
         d="M356,952.87v5.78c0,1.48-.6,2.21-1.85,2.21s-1.94-.85-2-2.28l-1.15.07a3,3,0,0,0,3.17,3.21,2.85,2.85,0,0,0,3.08-3.18v-5.81Zm6.85,6.21a1.68,1.68,0,0,1-1.62,1.87c-1,0-1.41-.66-1.41-1.68v-3.7h-1.16v3.81c0,1.43.59,2.48,2.18,2.48a2.14,2.14,0,0,0,2-1.25v1.08H364v-6.12H362.8Zm3.92-.9a1.69,1.69,0,0,1,1.65-1.85c1,0,1.46.64,1.46,1.66v3.7H371v-3.8c0-1.42-.65-2.49-2.24-2.49a2.17,2.17,0,0,0-2,1.26v-1.09h-1.16v6.12h1.16Z"
         id="path133" />
      <path
         d="M417.64,952.87v5.78c0,1.48-.6,2.21-1.85,2.21s-1.94-.85-2-2.28l-1.15.07a3,3,0,0,0,3.17,3.21,2.85,2.85,0,0,0,3.08-3.18v-5.81Zm6.84,6.21a1.68,1.68,0,0,1-1.61,1.87c-1,0-1.41-.66-1.41-1.68v-3.7H420.3v3.81c0,1.43.59,2.48,2.18,2.48a2.11,2.11,0,0,0,2-1.25v1.08h1.17v-6.12h-1.17Zm2.76-6.21v8.82h1.17v-8.82Z"
         id="path135" />
      <path
         d="M479.2,952.87l-3.6,8.82h1.19l1-2.59h4l1.06,2.59h1.29l-3.67-8.82Zm.59,1.34h0l1.61,3.92h-3.24Zm9.4,4.87a1.68,1.68,0,0,1-1.61,1.87c-1,0-1.41-.66-1.41-1.68v-3.7H485v3.81c0,1.43.59,2.48,2.18,2.48a2.12,2.12,0,0,0,2-1.25v1.08h1.17v-6.12h-1.17Zm7.8-1.59a2,2,0,0,0-.29-1,2.92,2.92,0,0,1,1.18-.25v-1a1.88,1.88,0,0,0-1.56.84,3,3,0,0,0-1.92-.63c-1.49,0-2.56.8-2.56,2.09a1.89,1.89,0,0,0,.8,1.58,1.29,1.29,0,0,0-.92,1.15,1.07,1.07,0,0,0,.81,1,1.33,1.33,0,0,0-1.26,1.29c0,1.13,1.37,1.65,3,1.65,1.82,0,3.53-.59,3.53-2.12,0-1-.7-1.65-2-1.65H493.4c-.54,0-.75-.19-.75-.53a.73.73,0,0,1,.41-.6,3.3,3.3,0,0,0,1.34.25C495.92,959.56,497,958.76,497,957.49Zm-4.62,4.84c0-.65.55-.87,1.18-.87h2c.72,0,1.18.2,1.18.76,0,.88-1,1.22-2.41,1.22C493.16,963.44,492.37,963.1,492.37,962.33Zm3.45-4.83a1.4,1.4,0,1,1-1.4-1.34A1.25,1.25,0,0,1,495.82,957.5Z"
         id="path137" />
      <path
         d="M539.9,958.54c0,2.13,1.58,3.32,3.75,3.32,1.9,0,3.3-.94,3.3-2.56,0-1.42-.81-2.12-2.42-2.43l-1.59-.3c-1-.2-1.6-.48-1.6-1.35s.71-1.58,2-1.58a2.16,2.16,0,0,1,2.38,2.28l1.1,0c0-2-1.29-3.17-3.5-3.17-1.93,0-3.15,1-3.15,2.59,0,1.37.9,2.07,2.2,2.33l1.75.33c1.15.23,1.68.62,1.68,1.43,0,1-.83,1.52-2.14,1.52a2.42,2.42,0,0,1-2.66-2.43Zm13,1a1.76,1.76,0,0,1-1.88,1.43,2,2,0,0,1-2-2h4.87v-.47A2.82,2.82,0,0,0,551,955.4a3.12,3.12,0,0,0-3.09,3.32,3,3,0,0,0,3.15,3.14,2.71,2.71,0,0,0,2.85-2.23Zm-3.85-1.36a2,2,0,0,1,1.9-1.88,1.76,1.76,0,0,1,1.75,1.88Zm7.18.29a1.94,1.94,0,0,1,2-2.11c1.21,0,1.87.9,1.87,2.3s-.66,2.29-1.87,2.29a1.94,1.94,0,0,1-2-2.12Zm0,2a2.27,2.27,0,0,0,2.2,1.44c1.81,0,2.8-1.42,2.8-3.22s-1-3.24-2.8-3.24a2.27,2.27,0,0,0-2.2,1.46v-1.29h-1.16V964h1.16Zm6.42-.16c0,1.19.61,1.6,1.48,1.6a2.4,2.4,0,0,0,1.57-.52v-.78a2.54,2.54,0,0,1-1.15.36c-.53,0-.75-.25-.75-.8v-3.71h1.72v-.84h-1.72v-1.69h-.66l-.18.85c-.14.59-.27.87-.84,1l-.4.07v.63h.93Z"
         id="path139" />
      <path
         d="M610.49,957.28a4.38,4.38,0,1,0-4.38,4.58A4.29,4.29,0,0,0,610.49,957.28Zm-1.26,0c0,2.16-1.22,3.54-3.12,3.54s-3.14-1.38-3.14-3.54,1.23-3.54,3.14-3.54S609.23,955.12,609.23,957.28Zm2.17,1.36a3,3,0,0,0,3.14,3.22,2.75,2.75,0,0,0,2.89-2.68l-1-.1a1.82,1.82,0,0,1-1.87,1.85c-1.15,0-1.93-.88-1.93-2.29s.78-2.3,1.93-2.3a1.79,1.79,0,0,1,1.87,1.81l1-.07a2.76,2.76,0,0,0-2.89-2.68A3,3,0,0,0,611.4,958.64Zm7.43,1.62c0,1.19.61,1.6,1.48,1.6a2.38,2.38,0,0,0,1.57-.52v-.78a2.5,2.5,0,0,1-1.15.36c-.53,0-.75-.25-.75-.8v-3.71h1.72v-.84H620v-1.69h-.66l-.18.85c-.14.59-.27.87-.84,1l-.4.07v.63h.93Z"
         id="path141" />
      <path
         d="M665.39,952.87h-1.26v8.82h1.14v-7.08l5.12,7.08h1v-8.82h-1.14v6.75Zm8.41,5.77c0-1.38.69-2.33,1.92-2.33s1.95,1,1.95,2.33S677,961,675.72,961,673.8,960,673.8,958.64Zm5.06,0a3.13,3.13,0,1,0-3.14,3.22A3.07,3.07,0,0,0,678.86,958.64Zm4,3.05,2.52-6.12h-1.13l-1.86,4.7h-.06l-1.9-4.7h-1.22l2.52,6.12Z"
         id="path143" />
      <path
         d="M725.63,960.7v-6.84h1.91a3.42,3.42,0,0,1,0,6.84Zm-1.21,1h3.19c2.77,0,4.52-1.65,4.52-4.41s-1.75-4.41-4.52-4.41h-3.19Zm13.65-2.17A1.75,1.75,0,0,1,736.2,961a2,2,0,0,1-2-2h4.87v-.47a2.82,2.82,0,0,0-2.94-3.05,3.12,3.12,0,0,0-3.1,3.32,3,3,0,0,0,3.15,3.14,2.72,2.72,0,0,0,2.86-2.23Zm-3.85-1.36a2,2,0,0,1,1.91-1.88,1.76,1.76,0,0,1,1.75,1.88Zm5.71.48a3,3,0,0,0,3.13,3.22,2.73,2.73,0,0,0,2.88-2.68l-1-.1a1.83,1.83,0,0,1-1.87,1.85c-1.15,0-1.93-.88-1.93-2.29s.78-2.3,1.93-2.3a1.79,1.79,0,0,1,1.87,1.81l1-.07a2.74,2.74,0,0,0-2.88-2.68A3,3,0,0,0,739.93,958.64Z"
         id="path145" />
      <line
         x1="106.33"
         y1="931.94"
         x2="106.33"
         y2="947.94"
         style="fill:none;stroke:#000"
         id="line147" />
      <line
         x1="44.33"
         y1="931.94"
         x2="44.33"
         y2="947.94"
         style="fill:none;stroke:#000"
         id="line149" />
      <line
         x1="168.33"
         y1="931.94"
         x2="168.33"
         y2="947.94"
         style="fill:none;stroke:#000"
         id="line151" />
      <line
         x1="478.33"
         y1="931.94"
         x2="478.33"
         y2="947.94"
         style="fill:none;stroke:#000"
         id="line153" />
      <line
         x1="540.33"
         y1="931.94"
         x2="540.33"
         y2="947.94"
         style="fill:none;stroke:#000"
         id="line155" />
      <line
         x1="230.33"
         y1="931.94"
         x2="230.33"
         y2="947.94"
         style="fill:none;stroke:#000"
         id="line157" />
      <line
         x1="602.49"
         y1="931.94"
         x2="602.49"
         y2="947.94"
         style="fill:none;stroke:#000"
         id="line159" />
      <line
         x1="354.33"
         y1="931.94"
         x2="354.33"
         y2="947.94"
         style="fill:none;stroke:#000"
         id="line161" />
      <line
         x1="292.33"
         y1="931.94"
         x2="292.33"
         y2="947.94"
         style="fill:none;stroke:#000"
         id="line163" />
      <line
         x1="664.18"
         y1="931.94"
         x2="664.18"
         y2="947.94"
         style="fill:none;stroke:#000"
         id="line165" />
      <line
         x1="726.18"
         y1="931.94"
         x2="726.18"
         y2="947.94"
         style="fill:none;stroke:#000"
         id="line167" />
      <line
         x1="416.33"
         y1="931.94"
         x2="416.33"
         y2="947.94"
         style="fill:none;stroke:#000"
         id="line169" />
      <line
         x1="43.83"
         y1="931.44"
         x2="787.83"
         y2="931.44"
         style="fill:none;stroke:#000"
         id="line171" />
      <path
         d="M3.6,181.69,0,190.51H1.19l1-2.59h4l1.07,2.59H8.6l-3.67-8.82ZM4.19,183h0L5.85,187H2.6Zm4.92,5.42c.11,1.51,1.27,2.22,2.8,2.22s2.51-.66,2.51-1.87-.73-1.57-2-1.78l-1.15-.18c-.63-.12-.94-.37-.94-.86s.5-.91,1.27-.91a1.52,1.52,0,0,1,1.75,1.37l.94,0c-.11-1.42-1.06-2.17-2.69-2.17-1.41,0-2.35.75-2.35,1.87s.69,1.54,1.84,1.73l1,.18c.76.14,1.16.33,1.16.91s-.6.91-1.41.91a1.61,1.61,0,0,1-1.82-1.44Zm6.5-4.06v6.11h1.17V184.4Zm0-1.39h1.2v-1.32h-1.2Zm6.58,4.77a1.9,1.9,0,0,1-1.9,2.05c-.7,0-1.05-.39-1.05-.91,0-.74.61-.93,1.58-1.14l1.37-.29Zm1.12-1.21a2.16,2.16,0,0,0-2.45-2.34,2.47,2.47,0,0,0-2.59,2l1,.14a1.48,1.48,0,0,1,1.54-1.24,1.24,1.24,0,0,1,1.34,1.36v.24l-1.65.34c-1.47.29-2.47.77-2.47,1.93s.77,1.69,2,1.69a2.41,2.41,0,0,0,2.2-1.24,1.22,1.22,0,0,0,2.09.84v-.63a1.27,1.27,0,0,1-.53.14.43.43,0,0,1-.48-.48Z"
         id="path173" />
      <path
         d="M7,317.51H1.86v-3h4v-1h-4V310.7h5v-1H.69v8.82H7Zm5.28-1.6a1.67,1.67,0,0,1-1.61,1.86c-1,0-1.41-.66-1.41-1.68V312.4H8.07v3.8c0,1.43.58,2.48,2.18,2.48a2.13,2.13,0,0,0,2-1.24v1.07h1.16V312.4H12.25Zm6.53-3.4a1.28,1.28,0,0,0-.87-.28,1.93,1.93,0,0,0-1.74,1.41V312.4H15v6.11h1.16v-3.23c0-1.18.66-2,1.54-2a1.81,1.81,0,0,1,1,.25Zm1.49,2.95c0-1.37.68-2.32,1.92-2.32s1.94.95,1.94,2.32-.7,2.33-1.94,2.33S20.27,316.82,20.27,315.46Zm5.05,0a3.12,3.12,0,1,0-3.13,3.22A3.07,3.07,0,0,0,25.32,315.46Zm2.34-.18a1.93,1.93,0,0,1,2-2.11c1.2,0,1.86.89,1.86,2.29s-.66,2.3-1.86,2.3a1.94,1.94,0,0,1-2-2.13Zm0,2a2.24,2.24,0,0,0,2.19,1.44c1.81,0,2.8-1.41,2.8-3.22s-1-3.23-2.8-3.23a2.26,2.26,0,0,0-2.19,1.45V312.4H26.52v8.47h1.17Zm10.89-.9a1.75,1.75,0,0,1-1.87,1.43,2,2,0,0,1-2-2h4.88v-.46a2.82,2.82,0,0,0-2.94-3,3.12,3.12,0,0,0-3.1,3.32,3,3,0,0,0,3.15,3.13,2.72,2.72,0,0,0,2.86-2.22ZM34.73,315a2,2,0,0,1,1.91-1.88A1.76,1.76,0,0,1,38.39,315Z"
         id="path175" />
      <path
         d="M3.6,437.69,0,446.51H1.19l1-2.59h4l1.07,2.59H8.6l-3.67-8.82ZM4.19,439h0L5.85,443H2.6Zm5.46,2.2v5.27h1.14v-5.27h1.73v-.84H10.79v-.84c0-.73.3-1.19.94-1.19a1.1,1.1,0,0,1,1.07.84l.79-.28a1.78,1.78,0,0,0-1.91-1.4,1.94,1.94,0,0,0-2,2.15v.72H8.71v.84Zm7.52-.73a1.28,1.28,0,0,0-.87-.28,1.93,1.93,0,0,0-1.74,1.41V440.4H13.4v6.11h1.16v-3.23c0-1.18.66-2,1.54-2a1.76,1.76,0,0,1,.95.25Zm.86-.11v6.11H19.2V440.4ZM18,439h1.2v-1.32H18Zm2.38,4.45a3,3,0,0,0,3.14,3.22A2.73,2.73,0,0,0,26.41,444l-1-.1a1.83,1.83,0,0,1-1.88,1.85c-1.15,0-1.93-.88-1.93-2.3s.78-2.29,1.93-2.29a1.79,1.79,0,0,1,1.88,1.8l1-.07a2.74,2.74,0,0,0-2.88-2.67A3,3,0,0,0,20.39,443.46Zm11,.32a1.9,1.9,0,0,1-1.9,2.05c-.7,0-1.05-.39-1.05-.91,0-.74.61-.93,1.58-1.14l1.37-.29Zm1.12-1.21a2.16,2.16,0,0,0-2.45-2.34,2.47,2.47,0,0,0-2.59,2l1,.14a1.49,1.49,0,0,1,1.54-1.24,1.24,1.24,0,0,1,1.34,1.36v.24l-1.65.34c-1.47.29-2.46.77-2.46,1.93s.77,1.69,2,1.69a2.41,2.41,0,0,0,2.19-1.24,1.22,1.22,0,0,0,2.09.84v-.63a1.27,1.27,0,0,1-.53.14.43.43,0,0,1-.48-.48Z"
         id="path177" />
      <path
         d="M2,558.4H.69v8.82H1.82v-7.08l5.12,7.08h1V558.4H6.78v6.75Zm8.41,5.77c0-1.37.68-2.33,1.91-2.33s2,1,2,2.33-.7,2.32-2,2.32S10.36,565.53,10.36,564.17Zm5.05,0a3.07,3.07,0,0,0-3.14-3.24,3.23,3.23,0,0,0,0,6.46A3.06,3.06,0,0,0,15.41,564.17Zm5-3a1.28,1.28,0,0,0-.87-.28,1.94,1.94,0,0,0-1.74,1.42V561.1H16.61v6.12h1.16V564c0-1.18.66-2,1.54-2a1.81,1.81,0,0,1,1,.25Zm1.24,4.58c0,1.19.62,1.6,1.49,1.6a2.35,2.35,0,0,0,1.56-.52v-.78a2.5,2.5,0,0,1-1.14.36c-.54,0-.76-.25-.76-.8v-3.71h1.72v-.84H22.77v-1.69h-.66l-.18.85c-.14.59-.27.87-.84,1l-.39.07v.63h.92Zm5.23-2.08a1.69,1.69,0,0,1,1.65-1.85c1,0,1.46.64,1.46,1.66v3.7h1.16v-3.79c0-1.43-.64-2.5-2.24-2.5a2.18,2.18,0,0,0-2,1.26V558.4H25.69v8.82h1.16Zm11.27-5.31-3.6,8.82h1.19l1-2.59h4l1.06,2.59h1.29l-3.67-8.82Zm.59,1.34h0l1.61,3.92H37.13Zm10.48,2.52a1.93,1.93,0,0,0-2-1.33,2,2,0,0,0-1.95,1.26V561.1H44.08v6.12h1.16v-3.51a1.66,1.66,0,0,1,1.56-1.85c.93,0,1.35.64,1.35,1.66v3.7h1.17v-3.51a1.67,1.67,0,0,1,1.56-1.85c.94,0,1.36.64,1.36,1.66v3.7H53.4v-3.79c0-1.39-.56-2.5-2.15-2.5A2.21,2.21,0,0,0,49.19,562.26Zm10.39,2.79a1.75,1.75,0,0,1-1.87,1.43,2,2,0,0,1-2-2h4.88V564a2.83,2.83,0,0,0-2.94-3.06,3.12,3.12,0,0,0-3.1,3.32,3,3,0,0,0,3.15,3.14,2.72,2.72,0,0,0,2.86-2.23Zm-3.85-1.36a2,2,0,0,1,1.91-1.87,1.75,1.75,0,0,1,1.75,1.87Zm9.82-2.48a1.28,1.28,0,0,0-.87-.28A1.92,1.92,0,0,0,63,562.35V561.1H61.78v6.12H63V564c0-1.18.65-2,1.54-2a1.8,1.8,0,0,1,1,.25Zm.87-.11v6.12h1.16V561.1Zm0-1.38H67.6V558.4H66.39Zm2.39,4.45a3,3,0,0,0,3.13,3.22,2.75,2.75,0,0,0,2.89-2.68l-1-.09a1.82,1.82,0,0,1-1.87,1.84c-1.15,0-1.93-.88-1.93-2.29s.78-2.3,1.93-2.3a1.79,1.79,0,0,1,1.87,1.81l1-.07a2.76,2.76,0,0,0-2.89-2.68A3,3,0,0,0,68.78,564.17Zm11,.32a1.9,1.9,0,0,1-1.91,2c-.7,0-1-.39-1-.91,0-.74.62-.92,1.59-1.13l1.37-.29Zm1.12-1.22a2.16,2.16,0,0,0-2.45-2.34,2.47,2.47,0,0,0-2.59,2l1,.14a1.5,1.5,0,0,1,1.54-1.23,1.24,1.24,0,0,1,1.35,1.36v.24l-1.65.33c-1.47.3-2.47.77-2.47,1.93s.77,1.7,2,1.7a2.41,2.41,0,0,0,2.2-1.25A1.19,1.19,0,0,0,81,567.35a1.21,1.21,0,0,0,.94-.37v-.63a1.17,1.17,0,0,1-.54.14.42.42,0,0,1-.47-.47Z"
         id="path179" />
      <path
         d="M.14,692.07c0,2.13,1.58,3.32,3.75,3.32,1.91,0,3.31-.94,3.31-2.56,0-1.42-.82-2.12-2.43-2.43l-1.59-.3c-1-.2-1.6-.48-1.6-1.35s.72-1.58,2-1.58A2.16,2.16,0,0,1,6,689.45l1.11-.05c0-2-1.29-3.17-3.5-3.17-1.94,0-3.15,1-3.15,2.59,0,1.37.89,2.07,2.19,2.33l1.75.33c1.15.23,1.68.62,1.68,1.43,0,1-.82,1.53-2.14,1.53A2.43,2.43,0,0,1,1.23,692Zm9.19.1c0-1.37.69-2.33,1.92-2.33s1.94,1,1.94,2.33-.7,2.32-1.94,2.32S9.33,693.53,9.33,692.17Zm5.05,0a3.07,3.07,0,0,0-3.13-3.24,3.23,3.23,0,0,0,0,6.46A3.06,3.06,0,0,0,14.38,692.17Zm5.32.45a1.67,1.67,0,0,1-1.61,1.86c-1,0-1.41-.66-1.41-1.68v-3.7H15.52v3.81c0,1.43.59,2.48,2.18,2.48a2.12,2.12,0,0,0,2-1.25v1.08h1.17V689.1H19.7Zm3,1.17c0,1.19.62,1.6,1.49,1.6a2.4,2.4,0,0,0,1.57-.52v-.78a2.54,2.54,0,0,1-1.15.36c-.53,0-.76-.25-.76-.8v-3.71h1.72v-.84H23.82v-1.69h-.66l-.18.85c-.14.59-.26.87-.84,1l-.39.07v.63h.92Zm5.24-2.08a1.69,1.69,0,0,1,1.65-1.85c1,0,1.45.64,1.45,1.66v3.7h1.17v-3.79c0-1.43-.65-2.5-2.24-2.5a2.17,2.17,0,0,0-2,1.26V686.4H26.74v8.82h1.17Zm11.26-5.31-3.6,8.82h1.19l1-2.59h4l1.06,2.59h1.29L40.5,686.4Zm.59,1.34h.06l1.61,3.92H38.18Zm10.48,2.52a1.92,1.92,0,0,0-2-1.33,2,2,0,0,0-2,1.26V689.1H45.13v6.12h1.16v-3.51a1.66,1.66,0,0,1,1.56-1.85c.94,0,1.36.64,1.36,1.66v3.7h1.16v-3.51a1.67,1.67,0,0,1,1.57-1.85c.93,0,1.35.64,1.35,1.66v3.7h1.17v-3.79c0-1.39-.56-2.5-2.16-2.5A2.21,2.21,0,0,0,50.24,690.26Zm10.4,2.79a1.77,1.77,0,0,1-1.88,1.43,2,2,0,0,1-2-2h4.87V692a2.82,2.82,0,0,0-2.94-3.06,3.12,3.12,0,0,0-3.09,3.32,3,3,0,0,0,3.15,3.14,2.72,2.72,0,0,0,2.85-2.23Zm-3.85-1.36a2,2,0,0,1,1.9-1.87,1.75,1.75,0,0,1,1.75,1.87Zm9.81-2.48a1.28,1.28,0,0,0-.87-.28A1.92,1.92,0,0,0,64,690.35V689.1H62.84v6.12H64V692c0-1.18.66-2,1.54-2a1.78,1.78,0,0,1,.95.25Zm.87-.11v6.12h1.16V689.1Zm0-1.38h1.21V686.4H67.44Zm2.39,4.45A3,3,0,0,0,73,695.39a2.74,2.74,0,0,0,2.89-2.68l-1-.09A1.83,1.83,0,0,1,73,694.46c-1.15,0-1.93-.88-1.93-2.29s.78-2.3,1.93-2.3a1.8,1.8,0,0,1,1.88,1.81l1-.07A2.75,2.75,0,0,0,73,688.93,3,3,0,0,0,69.83,692.17Zm11,.32a1.9,1.9,0,0,1-1.9,2c-.7,0-1-.39-1-.91,0-.74.61-.92,1.58-1.13l1.37-.29ZM82,691.27a2.16,2.16,0,0,0-2.45-2.34,2.47,2.47,0,0,0-2.59,2l1,.14a1.48,1.48,0,0,1,1.54-1.23,1.24,1.24,0,0,1,1.34,1.36v.24l-1.65.33c-1.47.3-2.47.77-2.47,1.93s.77,1.7,2,1.7a2.4,2.4,0,0,0,2.2-1.25A1.22,1.22,0,0,0,83,695v-.63a1.14,1.14,0,0,1-.53.14A.43.43,0,0,1,82,694Z"
         id="path181" />
      <path
         d="M9,818.06a4.29,4.29,0,0,0-4.38-4.58,4.58,4.58,0,0,0,0,9.16A4.29,4.29,0,0,0,9,818.06Zm-1.26,0c0,2.15-1.21,3.54-3.12,3.54s-3.13-1.39-3.13-3.54,1.23-3.54,3.13-3.54S7.78,815.9,7.78,818.06ZM10,819.42a3,3,0,0,0,3.13,3.22A2.74,2.74,0,0,0,16,820l-1-.09a1.83,1.83,0,0,1-1.88,1.84c-1.15,0-1.93-.88-1.93-2.29s.78-2.3,1.93-2.3A1.8,1.8,0,0,1,15,818.93l1-.07a2.75,2.75,0,0,0-2.89-2.68A3,3,0,0,0,10,819.42Zm11.9.88A1.75,1.75,0,0,1,20,821.73a2,2,0,0,1-2-2h4.88v-.46a2.83,2.83,0,0,0-2.94-3.06,3.12,3.12,0,0,0-3.1,3.32A3,3,0,0,0,20,822.64a2.72,2.72,0,0,0,2.86-2.23ZM18,818.94a2,2,0,0,1,1.91-1.87,1.75,1.75,0,0,1,1.75,1.87Zm9.86.8a1.89,1.89,0,0,1-1.9,2c-.7,0-1-.39-1-.91,0-.74.61-.92,1.58-1.13l1.37-.29ZM29,818.52a2.16,2.16,0,0,0-2.45-2.34,2.47,2.47,0,0,0-2.59,2l1,.14a1.49,1.49,0,0,1,1.54-1.23,1.24,1.24,0,0,1,1.34,1.36v.24l-1.65.33c-1.47.3-2.46.77-2.46,1.93s.77,1.7,2,1.7a2.4,2.4,0,0,0,2.19-1.25,1.22,1.22,0,0,0,2.09.84v-.63a1.14,1.14,0,0,1-.53.14.43.43,0,0,1-.48-.48Zm3.09.43a1.68,1.68,0,0,1,1.65-1.84c1,0,1.45.64,1.45,1.66v3.7h1.17v-3.79c0-1.43-.65-2.5-2.24-2.5a2.17,2.17,0,0,0-2,1.26v-1.09H30.91v6.12h1.17Zm5.78-2.6v6.12H39v-6.12Zm0-1.39H39v-1.31h-1.2Zm6.58,4.78a1.89,1.89,0,0,1-1.9,2c-.7,0-1-.39-1-.91,0-.74.62-.92,1.58-1.13l1.37-.29Zm1.12-1.22a2.16,2.16,0,0,0-2.45-2.34,2.47,2.47,0,0,0-2.59,2l1,.14a1.49,1.49,0,0,1,1.54-1.23,1.24,1.24,0,0,1,1.34,1.36v.24l-1.65.33c-1.47.3-2.46.77-2.46,1.93s.77,1.7,2,1.7a2.42,2.42,0,0,0,2.2-1.25,1.17,1.17,0,0,0,1.14,1.2,1.19,1.19,0,0,0,.94-.36v-.63a1.14,1.14,0,0,1-.53.14.43.43,0,0,1-.48-.48Z"
         id="path183" />
      <line
         x1="43.83"
         y1="196.06"
         x2="787.83"
         y2="196.06"
         style="fill:none;stroke:#d5e0e8"
         id="line185" />
      <line
         x1="43.83"
         y1="324.06"
         x2="787.83"
         y2="324.06"
         style="fill:none;stroke:#d5e0e8"
         id="line187" />
      <line
         x1="43.83"
         y1="452.06"
         x2="787.83"
         y2="452.06"
         style="fill:none;stroke:#d5e0e8"
         id="line189" />
      <line
         x1="43.83"
         y1="572.76"
         x2="787.83"
         y2="572.76"
         style="fill:none;stroke:#d5e0e8"
         id="line191" />
      <line
         x1="43.83"
         y1="700.76"
         x2="787.83"
         y2="700.76"
         style="fill:none;stroke:#d5e0e8"
         id="line193" />
      <line
         x1="43.83"
         y1="828.01"
         x2="787.83"
         y2="828.01"
         style="fill:none;stroke:#bac8d4"
         id="line195" />
      <path
         d="M362,196.51a.17.17,0,0,1-.06.14.2.2,0,0,1-.14.06v-.2Z"
         style="fill:#00e1b3;isolation:isolate;opacity:0.75"
         id="path197" />
      <path
         d="M361.83,196.55h0a0,0,0,0,1,0,0h0Z"
         style="fill:#00e1b3"
         id="path199" />
      <path
         d="M229.83,196.55h0a0,0,0,0,1,0,0h0Z"
         style="fill:#00e1b3"
         id="path201" />
      <path
         d="M129.07,324.51a.24.24,0,0,1-.24.24v-.24Z"
         style="fill:#00e1b3;isolation:isolate;opacity:0.75"
         id="path203" />
    </g>
    <g
       class="countrypoint"
       id="NZL">
      <path
         d="M608.48,846.24v7.27h-.85l-4-5.71h-.07v5.71h-.88v-7.27h.85l4,5.73h.07v-5.73Zm1.52,7.27v-.63l3.92-5.86h-4v-.78h5v.64l-3.92,5.85h4v.78Zm6.49,0v-7.27h.88v6.49h3.38v.78Z"
         id="path207" />
      <path
         d="M581.33,857.51a17.51,17.51,0,0,1,17.5-17.5v17.5Z"
         style="fill:#7c2c77"
         id="path209" />
      <path
         d="M598.83,855.76a1.76,1.76,0,0,1,1.75,1.75h-1.75Z"
         style="fill:#7c2c77;isolation:isolate;opacity:0.75"
         id="path211" />
      <path
         d="M621.43,857.51a22.6,22.6,0,0,1-22.6,22.6v-22.6Z"
         style="fill:#00e1b3;isolation:isolate;opacity:0.5"
         id="path213" />
      <path
         d="M598.83,870.94a13.43,13.43,0,0,1-13.43-13.43h13.43Z"
         style="fill:#00e1b3"
         id="path215" />
    </g>
    <g
       class="countrypoint"
       id="AUS">
      <path
         d="M604,788.51h-.92l2.67-7.27h.91l2.67,7.27h-.93l-2.17-6.12h-.06Zm.34-2.84h3.72v.78h-3.72Zm10.89-4.43h.88v4.82a2.46,2.46,0,0,1-1.33,2.25,3.53,3.53,0,0,1-3,0,2.45,2.45,0,0,1-1-.92,2.59,2.59,0,0,1-.35-1.33v-4.82h.88V786a1.83,1.83,0,0,0,.24.94,1.53,1.53,0,0,0,.66.65,2.4,2.4,0,0,0,2.09,0,1.56,1.56,0,0,0,.67-.65,1.82,1.82,0,0,0,.23-.94Zm6.62,1.82a1.12,1.12,0,0,0-.52-.84,2,2,0,0,0-1.11-.3,2,2,0,0,0-.85.16,1.3,1.3,0,0,0-.56.43,1,1,0,0,0-.2.62.92.92,0,0,0,.14.5,1.33,1.33,0,0,0,.36.35,2.77,2.77,0,0,0,.46.22l.45.14.74.2a5.58,5.58,0,0,1,.63.2,3.11,3.11,0,0,1,.67.36,1.74,1.74,0,0,1,.53.58,1.64,1.64,0,0,1,.21.86,1.91,1.91,0,0,1-.31,1.07,2.14,2.14,0,0,1-.89.75,3.78,3.78,0,0,1-2.78,0,2.1,2.1,0,0,1-.89-.7,2,2,0,0,1-.37-1.05h.91a1.13,1.13,0,0,0,.28.68,1.51,1.51,0,0,0,.61.4,2.69,2.69,0,0,0,.81.13,2.38,2.38,0,0,0,.91-.17,1.53,1.53,0,0,0,.64-.46,1.13,1.13,0,0,0,.23-.7.85.85,0,0,0-.2-.58,1.41,1.41,0,0,0-.54-.37,4.55,4.55,0,0,0-.71-.25l-.89-.26a3.19,3.19,0,0,1-1.35-.7,1.54,1.54,0,0,1-.5-1.19,1.76,1.76,0,0,1,.33-1.06,2.17,2.17,0,0,1,.89-.71,3.22,3.22,0,0,1,2.51,0,2.16,2.16,0,0,1,.87.69,1.64,1.64,0,0,1,.34,1Z"
         id="path218" />
      <path
         d="M572.58,799.51a26.26,26.26,0,0,1,26.25-26.25v26.25Z"
         style="fill:#7c2c77"
         id="path220" />
      <path
         d="M598.83,790.76a8.76,8.76,0,0,1,8.75,8.75h-8.75Z"
         style="fill:#7c2c77;isolation:isolate;opacity:0.75"
         id="path222" />
      <path
         d="M621.62,799.51a22.79,22.79,0,0,1-22.79,22.79V799.51Z"
         style="fill:#00e1b3;isolation:isolate;opacity:0.5"
         id="path224" />
      <path
         d="M598.83,815.22a15.71,15.71,0,0,1-15.7-15.71h15.7Z"
         style="fill:#00e1b3"
         id="path226" />
    </g>
    <g
       class="countrypoint"
       id="BRA">
      <path
         d="M730.71,681.51v-7.27h2.54a2.74,2.74,0,0,1,1.26.26,1.77,1.77,0,0,1,.73.7,2,2,0,0,1,.25,1,1.64,1.64,0,0,1-.17.78,1.36,1.36,0,0,1-.44.48,1.73,1.73,0,0,1-.57.26v.07a1.56,1.56,0,0,1,.67.24,1.66,1.66,0,0,1,.56.61,2.12,2.12,0,0,1,0,2,1.71,1.71,0,0,1-.78.69,3.31,3.31,0,0,1-1.4.25Zm.88-.78h1.75a1.83,1.83,0,0,0,1.23-.33,1.09,1.09,0,0,0,.36-.82,1.34,1.34,0,0,0-.72-1.18,1.67,1.67,0,0,0-.83-.2h-1.79Zm0-3.29h1.64a1.65,1.65,0,0,0,.71-.16,1.24,1.24,0,0,0,.52-.44,1.23,1.23,0,0,0,.19-.67,1.07,1.07,0,0,0-.34-.81,1.41,1.41,0,0,0-1.06-.34h-1.66Zm5.63,4.07v-7.27h2.45a3,3,0,0,1,1.4.29,1.82,1.82,0,0,1,.81.79,2.41,2.41,0,0,1,.27,1.15,2.34,2.34,0,0,1-.27,1.14,1.83,1.83,0,0,1-.8.78,3,3,0,0,1-1.39.28h-2v-.79h2a2.26,2.26,0,0,0,.94-.17,1.13,1.13,0,0,0,.52-.49,1.6,1.6,0,0,0,.16-.75,1.67,1.67,0,0,0-.16-.76,1.14,1.14,0,0,0-.53-.51,2.07,2.07,0,0,0-.94-.18H738.1v6.49Zm3.42-3.26,1.79,3.26h-1l-1.76-3.26Zm3.27,3.26H743l2.67-7.27h.91l2.67,7.27h-.93l-2.17-6.12h-.06Zm.34-2.84H748v.78h-3.72Z"
         id="path229" />
      <path
         d="M699.58,700.51a26.26,26.26,0,0,1,26.25-26.25v26.25Z"
         style="fill:#7c2c77"
         id="path231" />
      <path
         d="M725.83,683a17.5,17.5,0,0,1,17.5,17.5h-17.5Z"
         style="fill:#7c2c77;isolation:isolate;opacity:0.75"
         id="path233" />
      <path
         d="M752.68,700.51a26.84,26.84,0,0,1-26.85,26.85V700.51Z"
         style="fill:#00e1b3;isolation:isolate;opacity:0.5"
         id="path235" />
      <path
         d="M725.83,722.53a22,22,0,0,1-22-22h22Z"
         style="fill:#00e1b3"
         id="path237" />
    </g>
    <g
       class="countrypoint"
       id="ARG">
      <path
         d="M485,681.51h-.92l2.67-7.27h.91l2.67,7.27h-.93l-2.17-6.12h-.06Zm.34-2.84h3.72v.78h-3.72Zm6.12,2.84v-7.27h2.46a3,3,0,0,1,1.4.29,1.93,1.93,0,0,1,.81.79,2.53,2.53,0,0,1,.26,1.15,2.46,2.46,0,0,1-.26,1.14,1.91,1.91,0,0,1-.81.78,3,3,0,0,1-1.39.28h-2v-.79h2a2.26,2.26,0,0,0,.94-.17,1.13,1.13,0,0,0,.52-.49,1.6,1.6,0,0,0,.16-.75,1.67,1.67,0,0,0-.16-.76,1.12,1.12,0,0,0-.52-.51,2.14,2.14,0,0,0-1-.18h-1.55v6.49Zm3.42-3.26,1.79,3.26h-1l-1.76-3.26Zm7.95-1.74a2.53,2.53,0,0,0-.31-.64,2.34,2.34,0,0,0-.45-.49,2,2,0,0,0-.59-.31,2.37,2.37,0,0,0-.72-.1,2.16,2.16,0,0,0-1.18.33,2.33,2.33,0,0,0-.84,1,3.68,3.68,0,0,0-.32,1.6,3.6,3.6,0,0,0,.32,1.59,2.39,2.39,0,0,0,.86,1,2.27,2.27,0,0,0,1.21.33,2.16,2.16,0,0,0,1.1-.27,1.89,1.89,0,0,0,.75-.76,2.37,2.37,0,0,0,.27-1.16l.27.06H501v-.78h2.77v.78a3.11,3.11,0,0,1-.38,1.56,2.73,2.73,0,0,1-1.05,1,3.45,3.45,0,0,1-3.24-.09,3,3,0,0,1-1.13-1.29,4.56,4.56,0,0,1-.41-2,4.91,4.91,0,0,1,.23-1.55,3.45,3.45,0,0,1,.66-1.18,2.84,2.84,0,0,1,1-.75,3.2,3.2,0,0,1,1.29-.26,3.12,3.12,0,0,1,1.07.18,2.83,2.83,0,0,1,.89.48,3,3,0,0,1,.66.75,3.08,3.08,0,0,1,.36,1Z"
         id="path240" />
      <path
         d="M444.83,700.51a35,35,0,0,1,35-35v35Z"
         style="fill:#7c2c77"
         id="path242" />
      <path
         d="M479.83,683a17.5,17.5,0,0,1,17.5,17.5h-17.5Z"
         style="fill:#7c2c77;isolation:isolate;opacity:0.75"
         id="path244" />
      <path
         d="M499.66,700.51a19.84,19.84,0,0,1-19.83,19.83V700.51Z"
         style="fill:#00e1b3;isolation:isolate;opacity:0.5"
         id="path246" />
      <path
         d="M479.83,706.24a5.72,5.72,0,0,1-5.72-5.73h5.72Z"
         style="fill:#00e1b3"
         id="path248" />
    </g>
    <g
       class="countrypoint"
       id="JAM">
      <path
         d="M734.5,546.24h.88v5.2a2.51,2.51,0,0,1-.26,1.18,1.72,1.72,0,0,1-.72.74,2.24,2.24,0,0,1-1.1.25,2.57,2.57,0,0,1-1.06-.21,1.8,1.8,0,0,1-.73-.63,1.69,1.69,0,0,1-.27-1h.87a1,1,0,0,0,.15.54,1.06,1.06,0,0,0,.43.35,1.33,1.33,0,0,0,.61.13,1.21,1.21,0,0,0,.65-.16,1,1,0,0,0,.41-.47,1.88,1.88,0,0,0,.14-.76Zm2.94,7.27h-.92l2.67-7.27h.91l2.67,7.27h-.93l-2.17-6.12h-.06Zm.34-2.84h3.72v.78h-3.72Zm6.12-4.43H745l2.47,6h.09l2.47-6h1v7.27h-.82V548h-.07l-2.28,5.52h-.79L744.8,548h-.08v5.52h-.82Z"
         id="path251" />
      <path
         d="M700.58,572.51a26.26,26.26,0,0,1,26.25-26.25v26.25Z"
         style="fill:#7c2c77"
         id="path253" />
      <path
         d="M726.83,555a17.5,17.5,0,0,1,17.5,17.5h-17.5Z"
         style="fill:#7c2c77;isolation:isolate;opacity:0.75"
         id="path255" />
      <path
         d="M734.73,572.51a7.89,7.89,0,0,1-7.9,7.9v-7.9Z"
         style="fill:#00e1b3;isolation:isolate;opacity:0.5"
         id="path257" />
      <path
         d="M726.83,578.55a6,6,0,0,1-6-6h6Z"
         style="fill:#00e1b3"
         id="path259" />
    </g>
    <g
       class="countrypoint"
       id="CAN">
      <path
         d="M612.56,548.51h-.88a1.77,1.77,0,0,0-.27-.66,1.69,1.69,0,0,0-.47-.49,1.81,1.81,0,0,0-.61-.29,2.38,2.38,0,0,0-1.89.23,2.35,2.35,0,0,0-.85,1,3.68,3.68,0,0,0-.31,1.6,3.61,3.61,0,0,0,.31,1.59,2.44,2.44,0,0,0,.85,1,2.38,2.38,0,0,0,1.89.23,1.83,1.83,0,0,0,.61-.3,1.79,1.79,0,0,0,.47-.48,1.89,1.89,0,0,0,.27-.67h.88a2.71,2.71,0,0,1-.36,1,2.66,2.66,0,0,1-1.53,1.21,3.07,3.07,0,0,1-3.83-1.58,5,5,0,0,1,0-4A3.13,3.13,0,0,1,608,546.6a3,3,0,0,1,1.66-.46,3.42,3.42,0,0,1,1,.16,2.76,2.76,0,0,1,.88.47,2.48,2.48,0,0,1,.65.75A2.66,2.66,0,0,1,612.56,548.51Zm1.73,5h-.93l2.67-7.27h.91l2.67,7.27h-.92l-2.17-6.12h-.06Zm.34-2.84h3.72v.78h-3.72Zm11.88-4.43v7.27h-.85l-4-5.71h-.07v5.71h-.88v-7.27h.85l4,5.73h.08v-5.73Z"
         id="path262" />
      <path
         d="M566.83,572.51a35,35,0,0,1,35-35v35Z"
         style="fill:#7c2c77"
         id="path264" />
      <path
         d="M601.83,555a17.5,17.5,0,0,1,17.5,17.5h-17.5Z"
         style="fill:#7c2c77;isolation:isolate;opacity:0.75"
         id="path266" />
      <path
         d="M628.64,572.51a26.82,26.82,0,0,1-26.81,26.82V572.51Z"
         style="fill:#00e1b3;isolation:isolate;opacity:0.5"
         id="path268" />
      <path
         d="M601.83,597.43a24.92,24.92,0,0,1-24.92-24.92h24.92Z"
         style="fill:#00e1b3"
         id="path270" />
    </g>
    <g
       class="countrypoint"
       id="MEX">
      <path
         d="M420.71,546.24h1.05l2.48,6h.08l2.47-6h1v7.27H427V548H427l-2.27,5.52h-.8L421.61,548h-.07v5.52h-.83Zm8.9,7.27v-7.27H434V547h-3.51v2.46h3.28v.78h-3.28v2.47h3.56v.78Zm6.4-7.27,1.88,3h.05l1.88-3h1l-2.29,3.64,2.29,3.63h-1l-1.88-3h-.05l-1.88,3h-1l2.34-3.63L435,546.24Z"
         id="path273" />
      <path
         d="M389.58,572.51a26.26,26.26,0,0,1,26.25-26.25v26.25Z"
         style="fill:#7c2c77"
         id="path275" />
      <path
         d="M415.83,555a17.5,17.5,0,0,1,17.5,17.5h-17.5Z"
         style="fill:#7c2c77;isolation:isolate;opacity:0.75"
         id="path277" />
      <path
         d="M424.42,572.51a8.59,8.59,0,0,1-8.59,8.59v-8.59Z"
         style="fill:#00e1b3;isolation:isolate;opacity:0.5"
         id="path279" />
      <path
         d="M415.83,577.8a5.28,5.28,0,0,1-5.29-5.29h5.29Z"
         style="fill:#00e1b3"
         id="path281" />
    </g>
    <g
       class="countrypoint"
       id="NGA">
      <path
         d="M737.81,439.79v8.72h-1L732,441.66H732v6.85h-1.06v-8.72h1l4.77,6.87h.09v-6.87Zm8.08,2.72a3.23,3.23,0,0,0-.37-.77,2.53,2.53,0,0,0-.54-.59,2.4,2.4,0,0,0-.71-.37,3,3,0,0,0-.87-.12,2.55,2.55,0,0,0-1.41.4,2.75,2.75,0,0,0-1,1.18,4.4,4.4,0,0,0-.37,1.91,4.22,4.22,0,0,0,.38,1.91,2.77,2.77,0,0,0,3.8,1.27,2.41,2.41,0,0,0,.9-.92A2.91,2.91,0,0,0,746,445l.32.07h-2.62v-.94H747v.94a3.63,3.63,0,0,1-.46,1.87,3.13,3.13,0,0,1-1.26,1.24,3.79,3.79,0,0,1-1.84.43,3.84,3.84,0,0,1-2-.54,3.74,3.74,0,0,1-1.36-1.55,5.51,5.51,0,0,1-.49-2.39,6,6,0,0,1,.28-1.86,4.15,4.15,0,0,1,.79-1.42,3.52,3.52,0,0,1,1.21-.89,3.72,3.72,0,0,1,1.54-.31,3.88,3.88,0,0,1,1.29.21,3.46,3.46,0,0,1,1.07.58,3.41,3.41,0,0,1,.79.9,3.46,3.46,0,0,1,.43,1.15Zm3,6h-1.11l3.21-8.72h1.09l3.2,8.72h-1.11l-2.6-7.34h-.07Zm.41-3.4h4.47V446h-4.47Z"
         id="path284" />
      <path
         d="M717.08,452.51a8.76,8.76,0,0,1,8.75-8.75v8.75Z"
         style="fill:#7c2c77"
         id="path286" />
      <path
         d="M725.83,450.76a1.76,1.76,0,0,1,1.75,1.75h-1.75Z"
         style="fill:#7c2c77;isolation:isolate;opacity:0.75"
         id="path288" />
      <path
         d="M726.88,452.51a1.06,1.06,0,0,1-1,1.05v-1.05Z"
         style="fill:#00e1b3;isolation:isolate;opacity:0.5"
         id="path290" />
      <path
         d="M725.83,453.1a.63.63,0,0,1-.41-.17.59.59,0,0,1-.17-.42h.58Z"
         style="fill:#00e1b3"
         id="path292" />
    </g>
    <g
       class="countrypoint"
       id="EGY">
      <path
         d="M668.71,440.51v-7.27h4.39V434h-3.51v2.46h3.29v.78h-3.29v2.47h3.57v.78Zm10.95-5a2.53,2.53,0,0,0-.31-.64,1.91,1.91,0,0,0-.45-.49,2,2,0,0,0-.59-.31,2.37,2.37,0,0,0-.72-.1,2.19,2.19,0,0,0-1.18.33,2.33,2.33,0,0,0-.84,1,3.68,3.68,0,0,0-.31,1.6,3.61,3.61,0,0,0,.31,1.59,2.39,2.39,0,0,0,.86,1,2.27,2.27,0,0,0,1.21.33,2.23,2.23,0,0,0,1.11-.27,1.93,1.93,0,0,0,.74-.76,2.37,2.37,0,0,0,.27-1.16l.27.06h-2.19v-.78h2.77v.78a3,3,0,0,1-.38,1.56,2.6,2.6,0,0,1-1.05,1,3.21,3.21,0,0,1-1.54.36,3.14,3.14,0,0,1-1.69-.45,3,3,0,0,1-1.14-1.29,4.53,4.53,0,0,1-.41-2,4.63,4.63,0,0,1,.24-1.55,3.15,3.15,0,0,1,.66-1.18,2.76,2.76,0,0,1,1-.75,3.28,3.28,0,0,1,2.35-.08,2.83,2.83,0,0,1,.89.48,3,3,0,0,1,.66.75,3.08,3.08,0,0,1,.36,1Zm1.61-2.27h1l2,3.4h.08l2-3.4h1l-2.63,4.28v3h-.88v-3Z"
         id="path295" />
      <path
         d="M646.33,452.51a17.51,17.51,0,0,1,17.5-17.5v17.5Z"
         style="fill:#7c2c77"
         id="path297" />
      <path
         d="M663.83,443.76a8.76,8.76,0,0,1,8.75,8.75h-8.75Z"
         style="fill:#7c2c77;isolation:isolate;opacity:0.75"
         id="path299" />
      <path
         d="M670.05,452.51a6.21,6.21,0,0,1-6.22,6.22v-6.22Z"
         style="fill:#00e1b3;isolation:isolate;opacity:0.5"
         id="path301" />
      <path
         d="M663.83,456.24a3.72,3.72,0,0,1-3.72-3.73h3.72Z"
         style="fill:#00e1b3"
         id="path303" />
    </g>
    <g
       class="countrypoint"
       id="ZAF">
      <path
         d="M607.47,433.51v-.64l3.92-5.85h-4v-.78h5v.64l-3.92,5.85h4v.78Zm6.79,0h-.92l2.67-7.27h.91l2.67,7.27h-.93l-2.17-6.12h-.06Zm.34-2.84h3.72v.78H614.6Zm6.12,2.84v-7.27h4.36V427H621.6v2.46h3.15v.78H621.6v3.25Z"
         id="path306" />
      <path
         d="M576.58,452.51a26.26,26.26,0,0,1,26.25-26.25v26.25Z"
         style="fill:#7c2c77"
         id="path308" />
      <path
         d="M602.83,435a17.5,17.5,0,0,1,17.5,17.5h-17.5Z"
         style="fill:#7c2c77;isolation:isolate;opacity:0.75"
         id="path310" />
      <path
         d="M610.17,452.51a7.34,7.34,0,0,1-7.34,7.35v-7.35Z"
         style="fill:#00e1b3;isolation:isolate;opacity:0.5"
         id="path312" />
      <path
         d="M602.83,457.65a5.14,5.14,0,0,1-5.14-5.14h5.14Z"
         style="fill:#00e1b3"
         id="path314" />
    </g>
    <g
       class="countrypoint"
       id="TUN">
      <path
         d="M544.31,427v-.78h5.46V427h-2.29v6.49h-.88V427Zm11.59-.78h.88v4.82a2.46,2.46,0,0,1-1.33,2.25,3.55,3.55,0,0,1-3,0,2.49,2.49,0,0,1-1-.92,2.59,2.59,0,0,1-.35-1.33v-4.82H552V431a1.92,1.92,0,0,0,.23.94,1.61,1.61,0,0,0,.67.65,2.4,2.4,0,0,0,2.09,0,1.61,1.61,0,0,0,.67-.65,1.92,1.92,0,0,0,.23-.94Zm8.41,0v7.27h-.85l-4-5.71h-.07v5.71h-.88v-7.27h.85l4,5.73h.07v-5.73Z"
         id="path317" />
      <path
         d="M504.83,452.51a35,35,0,0,1,35-35v35Z"
         style="fill:#7c2c77"
         id="path319" />
      <path
         d="M539.83,435a17.5,17.5,0,0,1,17.5,17.5h-17.5Z"
         style="fill:#7c2c77;isolation:isolate;opacity:0.75"
         id="path321" />
      <path
         d="M552.09,452.51a12.26,12.26,0,0,1-12.26,12.26V452.51Z"
         style="fill:#00e1b3;isolation:isolate;opacity:0.5"
         id="path323" />
      <path
         d="M539.83,458.84a6.33,6.33,0,0,1-6.32-6.33h6.32Z"
         style="fill:#00e1b3"
         id="path325" />
    </g>
    <g
       class="countrypoint"
       id="MAR">
      <path
         d="M358.71,471.24h1.05l2.48,6h.08l2.47-6h1v7.27H365V473H365l-2.27,5.52h-.8L359.61,473h-.07v5.52h-.83Zm9.2,7.27H367l2.67-7.27h.91l2.67,7.27h-.92l-2.17-6.12h-.06Zm.34-2.84H372v.78h-3.72Zm6.12,2.84v-7.27h2.45a3,3,0,0,1,1.4.29,1.82,1.82,0,0,1,.81.79,2.41,2.41,0,0,1,.27,1.15,2.34,2.34,0,0,1-.27,1.14,1.83,1.83,0,0,1-.8.78,3,3,0,0,1-1.39.28h-2v-.79h2a2.26,2.26,0,0,0,.94-.17,1.13,1.13,0,0,0,.52-.49,1.73,1.73,0,0,0,.16-.75,1.81,1.81,0,0,0-.16-.76,1.14,1.14,0,0,0-.53-.51,2.07,2.07,0,0,0-.94-.18h-1.55v6.49Zm3.42-3.26,1.79,3.26h-1l-1.76-3.26Z"
         id="path328" />
      <path
         d="M336.33,482.51a17.51,17.51,0,0,1,17.5-17.5v17.5Z"
         style="fill:#7c2c77"
         id="path330" />
      <path
         d="M353.83,480.76a1.76,1.76,0,0,1,1.75,1.75h-1.75Z"
         style="fill:#7c2c77;isolation:isolate;opacity:0.75"
         id="path332" />
      <path
         d="M362.05,482.51a8.21,8.21,0,0,1-8.22,8.23v-8.23Z"
         style="fill:#00e1b3;isolation:isolate;opacity:0.5"
         id="path334" />
      <path
         d="M353.83,487.8a5.27,5.27,0,0,1-5.28-5.29h5.28Z"
         style="fill:#00e1b3"
         id="path336" />
    </g>
    <g
       class="countrypoint"
       id="ETH">
      <path
         d="M358.71,440.51v-7.27h4.39V434h-3.51v2.46h3.28v.78h-3.28v2.47h3.57v.78Zm5.58-6.49v-.78h5.46V434h-2.29v6.49h-.88V434Zm6.82,6.49v-7.27H372v3.24h3.87v-3.24h.88v7.27h-.88v-3.25H372v3.25Z"
         id="path339" />
      <path
         d="M336.33,442.51a17.51,17.51,0,0,1,17.5-17.5v17.5Z"
         style="fill:#7c2c77"
         id="path341" />
      <path
         d="M353.83,440.76a1.76,1.76,0,0,1,1.75,1.75h-1.75Z"
         style="fill:#7c2c77;isolation:isolate;opacity:0.75"
         id="path343" />
      <path
         d="M354.37,442.51a.51.51,0,0,1-.16.39.52.52,0,0,1-.38.15v-.54Z"
         style="fill:#00e1b3;isolation:isolate;opacity:0.75"
         id="path345" />
    </g>
    <g
       class="countrypoint"
       id="ZWE">
      <path
         d="M234.47,479.51v-.64l3.92-5.85h-4v-.78h5v.64l-3.92,5.85h4v.78Zm7.81,0-2-7.27h.9l1.52,5.93h.07l1.55-5.93h1l1.55,5.93h.07l1.52-5.93h.9l-2,7.27h-.91l-1.61-5.79h0l-1.61,5.79Zm8.17,0v-7.27h4.39V473h-3.5v2.46h3.28v.78h-3.28v2.47h3.56v.78Z"
         id="path348" />
      <path
         d="M212.33,482.51a17.51,17.51,0,0,1,17.5-17.5v17.5Z"
         style="fill:#7c2c77"
         id="path350" />
      <path
         d="M229.83,480.76a1.76,1.76,0,0,1,1.75,1.75h-1.75Z"
         style="fill:#7c2c77;isolation:isolate;opacity:0.75"
         id="path352" />
      <path
         d="M230,482.51a.25.25,0,0,1-.06.15.2.2,0,0,1-.15.06v-.21Z"
         style="fill:#00e1b3;isolation:isolate;opacity:0.75"
         id="path354" />
      <path
         d="M229.83,482.55h0s0,0,0,0h0Z"
         style="fill:#00e1b3"
         id="path356" />
    </g>
    <g
       class="countrypoint"
       id="BWA">
      <path
         d="M235.71,423.51v-7.27h2.55a2.72,2.72,0,0,1,1.25.26,1.77,1.77,0,0,1,.73.7,2,2,0,0,1,.24,1,1.64,1.64,0,0,1-.16.78,1.27,1.27,0,0,1-.44.48,1.73,1.73,0,0,1-.57.26v.07a1.56,1.56,0,0,1,.67.24,1.66,1.66,0,0,1,.56.61,2.12,2.12,0,0,1,0,2,1.77,1.77,0,0,1-.78.69,3.31,3.31,0,0,1-1.4.25Zm.88-.78h1.75a1.83,1.83,0,0,0,1.23-.33,1.09,1.09,0,0,0,.36-.82,1.34,1.34,0,0,0-.72-1.18,1.67,1.67,0,0,0-.83-.2h-1.79Zm0-3.29h1.64a1.51,1.51,0,0,0,.71-.16,1.24,1.24,0,0,0,.52-.44,1.23,1.23,0,0,0,.19-.67,1.07,1.07,0,0,0-.34-.81,1.44,1.44,0,0,0-1.05-.34h-1.67Zm6.95,4.07-2-7.27h.89l1.52,5.93H244l1.54-5.93h1l1.55,5.93h.07l1.52-5.93h.89l-2,7.27h-.91l-1.6-5.79h-.06l-1.6,5.79Zm7.9,0h-.92l2.67-7.27h.91l2.67,7.27h-.93l-2.17-6.12h-.06Zm.34-2.84h3.72v.78h-3.72Z"
         id="path359" />
      <path
         d="M195.83,442.51a35,35,0,0,1,35-35v35Z"
         style="fill:#7c2c77"
         id="path361" />
      <path
         d="M230.83,425a17.5,17.5,0,0,1,17.5,17.5h-17.5Z"
         style="fill:#7c2c77;isolation:isolate;opacity:0.75"
         id="path363" />
    </g>
    <g
       class="countrypoint"
       id="ROU">
      <path
         d="M461.71,386.51v-7.27h2.46a3,3,0,0,1,1.4.29,1.93,1.93,0,0,1,.81.79,2.53,2.53,0,0,1,.26,1.15,2.46,2.46,0,0,1-.26,1.14,1.91,1.91,0,0,1-.81.78,3,3,0,0,1-1.39.28h-2v-.79h2a2.21,2.21,0,0,0,.93-.17,1.08,1.08,0,0,0,.52-.49,1.6,1.6,0,0,0,.16-.75,1.67,1.67,0,0,0-.16-.76,1.12,1.12,0,0,0-.52-.51,2.12,2.12,0,0,0-.95-.18h-1.55v6.49Zm3.43-3.26,1.79,3.26h-1l-1.76-3.26Zm9.11-.37a4.39,4.39,0,0,1-.42,2,3.13,3.13,0,0,1-1.14,1.29,3,3,0,0,1-1.65.45,3.08,3.08,0,0,1-1.66-.45,3.13,3.13,0,0,1-1.14-1.29,5,5,0,0,1,0-4,3.13,3.13,0,0,1,1.14-1.29,3,3,0,0,1,1.66-.46,3,3,0,0,1,1.65.46,3.13,3.13,0,0,1,1.14,1.29A4.39,4.39,0,0,1,474.25,382.88Zm-.86,0a3.68,3.68,0,0,0-.31-1.6,2.28,2.28,0,0,0-.85-1A2.22,2.22,0,0,0,471,380a2.26,2.26,0,0,0-1.2.33,2.28,2.28,0,0,0-.85,1,3.68,3.68,0,0,0-.31,1.6,3.61,3.61,0,0,0,.31,1.59,2.37,2.37,0,0,0,.85,1,2.26,2.26,0,0,0,1.2.33,2.22,2.22,0,0,0,1.19-.33,2.37,2.37,0,0,0,.85-1A3.61,3.61,0,0,0,473.39,382.88Zm7.11-3.64h.88v4.82a2.59,2.59,0,0,1-.35,1.33,2.49,2.49,0,0,1-1,.92,3.25,3.25,0,0,1-1.5.33,3.21,3.21,0,0,1-1.49-.33,2.42,2.42,0,0,1-1.33-2.25v-4.82h.88V384a1.82,1.82,0,0,0,.23.94,1.61,1.61,0,0,0,.67.65,2.4,2.4,0,0,0,2.09,0,1.61,1.61,0,0,0,.67-.65,1.92,1.92,0,0,0,.23-.94Z"
         id="path366" />
      <path
         d="M439.33,405.51a17.51,17.51,0,0,1,17.5-17.5v17.5Z"
         style="fill:#7c2c77"
         id="path368" />
      <path
         d="M456.83,388a17.5,17.5,0,0,1,17.5,17.5h-17.5Z"
         style="fill:#7c2c77;isolation:isolate;opacity:0.75"
         id="path370" />
      <path
         d="M465.48,405.51a8.66,8.66,0,0,1-8.65,8.66v-8.66Z"
         style="fill:#00e1b3;isolation:isolate;opacity:0.5"
         id="path372" />
      <path
         d="M456.83,413.84a8.33,8.33,0,0,1-8.32-8.33h8.32Z"
         style="fill:#00e1b3"
         id="path374" />
    </g>
    <g
       class="countrypoint"
       id="ITA">
      <path
         d="M511.59,338.24v7.27h-.88v-7.27ZM513,339v-.78h5.46V339h-2.29v6.49h-.88V339Zm6.26,6.49h-.92l2.67-7.27h.91l2.67,7.27h-.92l-2.18-6.12h-.05Zm.34-2.84h3.73v.78h-3.73Z"
         id="path377" />
      <path
         d="M479.58,356.51a26.26,26.26,0,0,1,26.25-26.25v26.25Z"
         style="fill:#7c2c77"
         id="path379" />
      <path
         d="M505.83,347.76a8.76,8.76,0,0,1,8.75,8.75h-8.75Z"
         style="fill:#7c2c77;isolation:isolate;opacity:0.75"
         id="path381" />
      <path
         d="M525.93,356.51a20.09,20.09,0,0,1-20.1,20.1v-20.1Z"
         style="fill:#00e1b3;isolation:isolate;opacity:0.5"
         id="path383" />
      <path
         d="M505.83,367.71a11.2,11.2,0,0,1-11.2-11.2h11.2Z"
         style="fill:#00e1b3"
         id="path385" />
    </g>
    <g
       class="countrypoint"
       id="FIN">
      <path
         d="M460.71,353.51v-7.27h4.36V347h-3.48v2.46h3.16v.78h-3.16v3.25Zm6.75-7.27v7.27h-.88v-7.27Zm7.53,0v7.27h-.85l-4-5.71h-.07v5.71h-.88v-7.27h.85l4,5.73h.07v-5.73Z"
         id="path388" />
      <path
         d="M430.58,356.51a26.26,26.26,0,0,1,26.25-26.25v26.25Z"
         style="fill:#7c2c77"
         id="path390" />
      <path
         d="M456.83,354.76a1.76,1.76,0,0,1,1.75,1.75h-1.75Z"
         style="fill:#7c2c77;isolation:isolate;opacity:0.75"
         id="path392" />
      <path
         d="M477.2,356.51a20.35,20.35,0,0,1-20.37,20.37V356.51Z"
         style="fill:#00e1b3;isolation:isolate;opacity:0.5"
         id="path394" />
      <path
         d="M456.83,362.75a6.23,6.23,0,0,1-6.23-6.24h6.23Z"
         style="fill:#00e1b3"
         id="path396" />
    </g>
    <g
       class="countrypoint"
       id="EST">
      <path
         d="M409.71,353.51v-7.27h4.39V347h-3.51v2.46h3.28v.78h-3.28v2.47h3.57v.78Zm10-5.45a1.15,1.15,0,0,0-.52-.84,2.26,2.26,0,0,0-2-.14,1.3,1.3,0,0,0-.56.43,1,1,0,0,0-.2.62.82.82,0,0,0,.14.5,1.2,1.2,0,0,0,.36.35,2.77,2.77,0,0,0,.46.22l.44.14.74.2a5.58,5.58,0,0,1,.63.2,3.17,3.17,0,0,1,.68.36,1.85,1.85,0,0,1,.53.58,1.64,1.64,0,0,1,.21.86,1.91,1.91,0,0,1-.31,1.07,2.11,2.11,0,0,1-.9.75,3.21,3.21,0,0,1-1.42.28,3.29,3.29,0,0,1-1.35-.25,2.19,2.19,0,0,1-.9-.7,2,2,0,0,1-.36-1.05h.91a1.12,1.12,0,0,0,.27.68,1.55,1.55,0,0,0,.62.4,2.64,2.64,0,0,0,.81.13,2.38,2.38,0,0,0,.91-.17,1.56,1.56,0,0,0,.63-.46,1.08,1.08,0,0,0,.24-.7.81.81,0,0,0-.21-.58,1.3,1.3,0,0,0-.53-.37,4.94,4.94,0,0,0-.71-.25l-.9-.26a3.19,3.19,0,0,1-1.35-.7,1.53,1.53,0,0,1-.49-1.19,1.76,1.76,0,0,1,.33-1.06,2.17,2.17,0,0,1,.89-.71,3.22,3.22,0,0,1,2.51,0,2.23,2.23,0,0,1,.87.69,1.71,1.71,0,0,1,.34,1Zm2-1v-.78h5.45V347h-2.28v6.49H424V347Z"
         id="path399" />
      <path
         d="M378.58,356.51a26.26,26.26,0,0,1,26.25-26.25v26.25Z"
         style="fill:#7c2c77"
         id="path401" />
      <path
         d="M404.83,354.76a1.76,1.76,0,0,1,1.75,1.75h-1.75Z"
         style="fill:#7c2c77;isolation:isolate;opacity:0.75"
         id="path403" />
      <path
         d="M419.66,356.51a14.82,14.82,0,0,1-14.83,14.83V356.51Z"
         style="fill:#00e1b3;isolation:isolate;opacity:0.5"
         id="path405" />
      <path
         d="M404.83,368.35A11.83,11.83,0,0,1,393,356.51h11.84Z"
         style="fill:#00e1b3"
         id="path407" />
    </g>
    <g
       class="countrypoint"
       id="GRC">
      <path
         d="M514.68,275.51a2.52,2.52,0,0,0-.3-.64,2.14,2.14,0,0,0-.46-.49,1.84,1.84,0,0,0-.59-.31,2.32,2.32,0,0,0-.72-.1,2.15,2.15,0,0,0-1.17.33,2.28,2.28,0,0,0-.85,1,3.68,3.68,0,0,0-.31,1.6,3.6,3.6,0,0,0,.32,1.59,2.37,2.37,0,0,0,.85,1,2.3,2.3,0,0,0,1.22.33,2.21,2.21,0,0,0,1.1-.27,1.81,1.81,0,0,0,.74-.76,2.37,2.37,0,0,0,.27-1.16l.27.06h-2.18v-.78h2.77v.78a3,3,0,0,1-.39,1.56,2.6,2.6,0,0,1-1,1,3.43,3.43,0,0,1-3.23-.09,3.06,3.06,0,0,1-1.14-1.29,4.53,4.53,0,0,1-.4-2,4.91,4.91,0,0,1,.23-1.55,3.45,3.45,0,0,1,.66-1.18,2.76,2.76,0,0,1,1-.75,3.28,3.28,0,0,1,2.35-.08,2.73,2.73,0,0,1,.89.48,2.8,2.8,0,0,1,1,1.71Zm2.46,5v-7.27h2.46a3,3,0,0,1,1.4.29,1.87,1.87,0,0,1,.81.79,2.41,2.41,0,0,1,.26,1.15,2.34,2.34,0,0,1-.26,1.14,1.85,1.85,0,0,1-.81.78,3,3,0,0,1-1.38.28h-2v-.79h2a2.18,2.18,0,0,0,.93-.17,1.08,1.08,0,0,0,.52-.49,1.6,1.6,0,0,0,.17-.75,1.67,1.67,0,0,0-.17-.76,1.07,1.07,0,0,0-.52-.51,2.12,2.12,0,0,0-.95-.18H518v6.49Zm3.43-3.26,1.79,3.26h-1l-1.76-3.26Zm8.82-1.74h-.88a1.77,1.77,0,0,0-.27-.66,1.83,1.83,0,0,0-.47-.49,2,2,0,0,0-.61-.3,2.61,2.61,0,0,0-.69-.09,2.26,2.26,0,0,0-1.2.33,2.35,2.35,0,0,0-.85,1,3.68,3.68,0,0,0-.31,1.6,3.61,3.61,0,0,0,.31,1.59,2.44,2.44,0,0,0,.85,1,2.38,2.38,0,0,0,1.89.23,2,2,0,0,0,.61-.29,2.19,2.19,0,0,0,.47-.49,1.89,1.89,0,0,0,.27-.67h.88a2.71,2.71,0,0,1-.36,1,2.75,2.75,0,0,1-.65.75,2.84,2.84,0,0,1-.88.46,3.17,3.17,0,0,1-1,.16,3,3,0,0,1-2.8-1.74,5,5,0,0,1,0-4,3.13,3.13,0,0,1,1.14-1.29,3,3,0,0,1,1.66-.46,3.17,3.17,0,0,1,1,.16,2.87,2.87,0,0,1,.88.47,2.48,2.48,0,0,1,.65.75A2.66,2.66,0,0,1,529.39,275.51Z"
         id="path410" />
      <path
         d="M479.58,299.51a26.26,26.26,0,0,1,26.25-26.25v26.25Z"
         style="fill:#7c2c77"
         id="path412" />
      <path
         d="M502.33,282a17.5,17.5,0,0,1,17.5,17.5h-17.5Z"
         style="fill:#7c2c77;isolation:isolate;opacity:0.75"
         id="path414" />
      <path
         d="M522.32,299.51A16.49,16.49,0,0,1,505.83,316V299.51Z"
         style="fill:#00e1b3;isolation:isolate;opacity:0.5"
         id="path416" />
      <path
         d="M505.83,312.44a12.92,12.92,0,0,1-12.93-12.93h12.93Z"
         style="fill:#00e1b3"
         id="path418" />
    </g>
    <g
       class="countrypoint"
       id="DEU">
      <path
         d="M412,288.51h-2.25v-7.27h2.35a3.57,3.57,0,0,1,1.81.44,2.85,2.85,0,0,1,1.15,1.25,4.23,4.23,0,0,1,.4,1.93,4.4,4.4,0,0,1-.4,2,2.88,2.88,0,0,1-1.18,1.26A3.79,3.79,0,0,1,412,288.51Zm-1.37-.78h1.31a2.91,2.91,0,0,0,1.49-.34,2.22,2.22,0,0,0,.89-1,3.73,3.73,0,0,0,.29-1.53,3.51,3.51,0,0,0-.29-1.51,2.07,2.07,0,0,0-.86-1A2.69,2.69,0,0,0,412,282h-1.41Zm6.31.78v-7.27h4.39V282h-3.51v2.46h3.28v.78h-3.28v2.47h3.57v.78Zm10.75-7.27h.88v4.82a2.59,2.59,0,0,1-.35,1.33,2.49,2.49,0,0,1-1,.92,3.25,3.25,0,0,1-1.5.33,3.21,3.21,0,0,1-1.49-.33,2.46,2.46,0,0,1-1.33-2.25v-4.82h.88V286a1.92,1.92,0,0,0,.23.94,1.61,1.61,0,0,0,.67.65,2.4,2.4,0,0,0,2.09,0,1.61,1.61,0,0,0,.67-.65,1.92,1.92,0,0,0,.23-.94Z"
         id="path421" />
      <path
         d="M387.33,299.51a17.51,17.51,0,0,1,17.5-17.5v17.5Z"
         style="fill:#7c2c77"
         id="path423" />
      <path
         d="M404.83,290.76a8.76,8.76,0,0,1,8.75,8.75h-8.75Z"
         style="fill:#7c2c77;isolation:isolate;opacity:0.75"
         id="path425" />
      <path
         d="M424.67,299.51a19.84,19.84,0,0,1-19.84,19.84V299.51Z"
         style="fill:#00e1b3;isolation:isolate;opacity:0.5"
         id="path427" />
      <path
         d="M404.83,312.78a13.25,13.25,0,0,1-13.26-13.27h13.26Z"
         style="fill:#00e1b3"
         id="path429" />
    </g>
    <g
       class="countrypoint"
       id="TUR">
      <path
         d="M357.32,299v-.78h5.45V299h-2.29v6.49h-.88V299Zm11.58-.78h.88v4.82a2.46,2.46,0,0,1-1.33,2.25,3.55,3.55,0,0,1-3,0,2.46,2.46,0,0,1-1.33-2.25v-4.82H365V303a1.92,1.92,0,0,0,.23.94,1.61,1.61,0,0,0,.67.65,2.4,2.4,0,0,0,2.09,0,1.61,1.61,0,0,0,.67-.65,1.92,1.92,0,0,0,.23-.94Zm2.64,7.27v-7.27H374a3,3,0,0,1,1.4.29,1.93,1.93,0,0,1,.81.79,2.53,2.53,0,0,1,.26,1.15,2.46,2.46,0,0,1-.26,1.14,1.91,1.91,0,0,1-.81.78,3,3,0,0,1-1.39.28h-2v-.79h2a2.26,2.26,0,0,0,.94-.17,1.13,1.13,0,0,0,.52-.49,1.6,1.6,0,0,0,.16-.75,1.67,1.67,0,0,0-.16-.76,1.12,1.12,0,0,0-.52-.51A2.14,2.14,0,0,0,374,299h-1.55v6.49Zm3.42-3.26,1.79,3.26h-1L374,302.25Z"
         id="path432" />
      <path
         d="M327.58,324.51a26.26,26.26,0,0,1,26.25-26.25v26.25Z"
         style="fill:#7c2c77"
         id="path434" />
      <path
         d="M353.83,307a17.5,17.5,0,0,1,17.5,17.5h-17.5Z"
         style="fill:#7c2c77;isolation:isolate;opacity:0.75"
         id="path436" />
      <path
         d="M360.72,324.51a6.88,6.88,0,0,1-6.89,6.89v-6.89Z"
         style="fill:#00e1b3;isolation:isolate;opacity:0.5"
         id="path438" />
      <path
         d="M353.83,329.71a5.19,5.19,0,0,1-5.2-5.2h5.2Z"
         style="fill:#00e1b3"
         id="path440" />
    </g>
    <g
       class="countrypoint"
       id="RUS">
      <path
         d="M133.71,305.51v-7.27h2.46a3,3,0,0,1,1.4.29,1.93,1.93,0,0,1,.81.79,2.53,2.53,0,0,1,.26,1.15,2.46,2.46,0,0,1-.26,1.14,1.91,1.91,0,0,1-.81.78,3,3,0,0,1-1.39.28h-2v-.79h2a2.21,2.21,0,0,0,.93-.17,1.08,1.08,0,0,0,.52-.49,1.6,1.6,0,0,0,.16-.75,1.67,1.67,0,0,0-.16-.76,1.12,1.12,0,0,0-.52-.51,2.12,2.12,0,0,0-1-.18h-1.55v6.49Zm3.43-3.26,1.79,3.26h-1l-1.76-3.26Zm7.74-4h.88v4.82a2.46,2.46,0,0,1-1.33,2.25,3.21,3.21,0,0,1-1.49.33,3.25,3.25,0,0,1-1.5-.33,2.49,2.49,0,0,1-1-.92,2.59,2.59,0,0,1-.35-1.33v-4.82H141V303a1.92,1.92,0,0,0,.23.94,1.61,1.61,0,0,0,.67.65,2.4,2.4,0,0,0,2.09,0,1.61,1.61,0,0,0,.67-.65,1.92,1.92,0,0,0,.23-.94Zm6.62,1.82a1.12,1.12,0,0,0-.52-.84,2,2,0,0,0-1.11-.3,2,2,0,0,0-.85.16,1.3,1.3,0,0,0-.56.43,1,1,0,0,0-.2.62.89.89,0,0,0,.14.5,1.2,1.2,0,0,0,.36.35,2.77,2.77,0,0,0,.46.22c.16.06.31.1.45.14l.73.2a5.7,5.7,0,0,1,.64.2,3.36,3.36,0,0,1,.67.36,1.85,1.85,0,0,1,.53.58,1.64,1.64,0,0,1,.21.86,1.91,1.91,0,0,1-.31,1.07,2.14,2.14,0,0,1-.89.75,3.78,3.78,0,0,1-2.78,0,2.19,2.19,0,0,1-.9-.7,2.06,2.06,0,0,1-.36-1.05h.91a1.07,1.07,0,0,0,.28.68,1.45,1.45,0,0,0,.61.4,2.64,2.64,0,0,0,.81.13,2.38,2.38,0,0,0,.91-.17,1.5,1.5,0,0,0,.63-.46,1.08,1.08,0,0,0,.24-.7.85.85,0,0,0-.2-.58,1.41,1.41,0,0,0-.54-.37,4.94,4.94,0,0,0-.71-.25l-.9-.26a3.32,3.32,0,0,1-1.35-.7,1.53,1.53,0,0,1-.49-1.19,1.76,1.76,0,0,1,.33-1.06,2.17,2.17,0,0,1,.89-.71,3.22,3.22,0,0,1,2.51,0,2.16,2.16,0,0,1,.87.69,1.64,1.64,0,0,1,.34,1Z"
         id="path443" />
      <path
         d="M93.83,324.51a35,35,0,0,1,35-35v35Z"
         style="fill:#7c2c77"
         id="path445" />
      <path
         d="M128.83,307a17.5,17.5,0,0,1,17.5,17.5h-17.5Z"
         style="fill:#7c2c77;isolation:isolate;opacity:0.75"
         id="path447" />
    </g>
    <g
       class="countrypoint"
       id="GBR">
      <path
         d="M301.68,308.51a2.24,2.24,0,0,0-.31-.64,1.91,1.91,0,0,0-.45-.49,2,2,0,0,0-.59-.31,2.37,2.37,0,0,0-.72-.1,2.21,2.21,0,0,0-1.18.33,2.33,2.33,0,0,0-.84,1,3.83,3.83,0,0,0-.31,1.6,3.6,3.6,0,0,0,.32,1.59,2.37,2.37,0,0,0,.85,1,2.3,2.3,0,0,0,1.22.33,2.21,2.21,0,0,0,1.1-.27,1.81,1.81,0,0,0,.74-.76,2.37,2.37,0,0,0,.27-1.16l.27.06h-2.18v-.78h2.77v.78a3,3,0,0,1-.39,1.56,2.6,2.6,0,0,1-1.05,1,3.43,3.43,0,0,1-3.23-.09,3.06,3.06,0,0,1-1.14-1.29,4.53,4.53,0,0,1-.4-2,4.91,4.91,0,0,1,.23-1.55,3.45,3.45,0,0,1,.66-1.18,2.76,2.76,0,0,1,1-.75,3.28,3.28,0,0,1,2.35-.08,2.73,2.73,0,0,1,.89.48,2.8,2.8,0,0,1,1,1.71Zm2.46,5v-7.27h2.55a2.72,2.72,0,0,1,1.25.26,1.79,1.79,0,0,1,.74.7,2,2,0,0,1,.24,1,1.64,1.64,0,0,1-.17.78,1.33,1.33,0,0,1-.43.48,1.78,1.78,0,0,1-.58.26v.07a1.56,1.56,0,0,1,.67.24,1.66,1.66,0,0,1,.56.61,2.12,2.12,0,0,1,0,2,1.71,1.71,0,0,1-.78.69,3.28,3.28,0,0,1-1.4.25Zm.88-.78h1.75a1.81,1.81,0,0,0,1.23-.33,1.09,1.09,0,0,0,.36-.82,1.34,1.34,0,0,0-.72-1.18,1.66,1.66,0,0,0-.82-.2H305Zm0-3.29h1.64a1.58,1.58,0,0,0,.72-.16,1.28,1.28,0,0,0,.51-.44,1.15,1.15,0,0,0,.19-.67,1.07,1.07,0,0,0-.34-.81,1.44,1.44,0,0,0-1.05-.34H305Zm5.63,4.07v-7.27h2.46a3.06,3.06,0,0,1,1.4.29,1.85,1.85,0,0,1,.8.79,2.41,2.41,0,0,1,.27,1.15,2.34,2.34,0,0,1-.27,1.14,1.83,1.83,0,0,1-.8.78,3,3,0,0,1-1.39.28h-2v-.79h2a2.26,2.26,0,0,0,.94-.17,1.13,1.13,0,0,0,.52-.49,1.6,1.6,0,0,0,.16-.75,1.67,1.67,0,0,0-.16-.76,1.14,1.14,0,0,0-.53-.51,2.07,2.07,0,0,0-.94-.18h-1.55v6.49Zm3.42-3.26,1.79,3.26h-1l-1.76-3.26Z"
         id="path450" />
      <path
         d="M265.58,324.51a26.26,26.26,0,0,1,26.25-26.25v26.25Z"
         style="fill:#7c2c77"
         id="path452" />
      <path
         d="M291.83,315.76a8.76,8.76,0,0,1,8.75,8.75h-8.75Z"
         style="fill:#7c2c77;isolation:isolate;opacity:0.75"
         id="path454" />
      <path
         d="M309.54,324.51a17.72,17.72,0,0,1-17.71,17.71V324.51Z"
         style="fill:#00e1b3;isolation:isolate;opacity:0.5"
         id="path456" />
      <path
         d="M291.83,332.38a7.87,7.87,0,0,1-7.87-7.87h7.87Z"
         style="fill:#00e1b3"
         id="path458" />
    </g>
    <g
       class="countrypoint"
       id="FRA">
      <path
         d="M461.71,288.51v-7.27h4.36V282h-3.48v2.46h3.16v.78h-3.16v3.25Zm5.87,0v-7.27H470a3,3,0,0,1,1.4.29,1.93,1.93,0,0,1,.81.79,2.53,2.53,0,0,1,.26,1.15,2.46,2.46,0,0,1-.26,1.14,1.91,1.91,0,0,1-.81.78,3,3,0,0,1-1.39.28h-2v-.79H470a2.22,2.22,0,0,0,.94-.17,1.13,1.13,0,0,0,.52-.49,1.6,1.6,0,0,0,.16-.75,1.67,1.67,0,0,0-.16-.76,1.12,1.12,0,0,0-.52-.51A2.14,2.14,0,0,0,470,282h-1.55v6.49Zm3.43-3.26,1.79,3.26h-1L470,285.25Zm3.27,3.26h-.93l2.67-7.27h.91l2.67,7.27h-.92l-2.17-6.12h-.06Zm.34-2.84h3.72v.78h-3.72Z"
         id="path461" />
      <path
         d="M430.58,299.51a26.26,26.26,0,0,1,26.25-26.25v26.25Z"
         style="fill:#7c2c77"
         id="path463" />
      <path
         d="M456.83,290.76a8.76,8.76,0,0,1,8.75,8.75h-8.75Z"
         style="fill:#7c2c77;isolation:isolate;opacity:0.75"
         id="path465" />
      <path
         d="M474.91,299.51a18.08,18.08,0,0,1-18.08,18.08V299.51Z"
         style="fill:#00e1b3;isolation:isolate;opacity:0.5"
         id="path467" />
      <path
         d="M456.83,310.73a11.22,11.22,0,0,1-11.21-11.22h11.21Z"
         style="fill:#00e1b3"
         id="path469" />
    </g>
    <g
       class="countrypoint"
       id="TWN">
      <path
         d="M729.31,185v-.78h5.46V185h-2.29v6.49h-.88V185Zm8.14,6.49-2-7.27h.9l1.52,5.93H738l1.55-5.93h1l1.55,5.93h.07l1.52-5.93h.89l-2,7.27h-.91L740,185.72H740l-1.6,5.79Zm13.94-7.27v7.27h-.85l-4-5.71h-.07v5.71h-.88v-7.27h.85l4,5.73h.07v-5.73Z"
         id="path472" />
      <path
         d="M716.08,196.51a8.76,8.76,0,0,1,8.75-8.75v8.75Z"
         style="fill:#7c2c77"
         id="path474" />
      <path
         d="M724.83,194.76a1.76,1.76,0,0,1,1.75,1.75h-1.75Z"
         style="fill:#7c2c77;isolation:isolate;opacity:0.75"
         id="path476" />
      <path
         d="M751.64,196.51a26.8,26.8,0,0,1-26.81,26.81V196.51Z"
         style="fill:#00e1b3;isolation:isolate;opacity:0.5"
         id="path478" />
      <path
         d="M724.83,216.38A19.87,19.87,0,0,1,705,196.51h19.86Z"
         style="fill:#00e1b3"
         id="path480" />
    </g>
    <g
       class="countrypoint"
       id="IND">
      <path
         d="M666.59,178.24v7.27h-.88v-7.27Zm7.54,0v7.27h-.86l-4-5.71h-.07v5.71h-.88v-7.27h.85l4,5.73h.07v-5.73Zm4,7.27h-2.24v-7.27h2.34a3.54,3.54,0,0,1,1.81.44,2.84,2.84,0,0,1,1.16,1.24,4.44,4.44,0,0,1,.4,1.94,4.39,4.39,0,0,1-.41,2,2.93,2.93,0,0,1-1.18,1.26A3.76,3.76,0,0,1,678.13,185.51Zm-1.36-.78h1.31a2.91,2.91,0,0,0,1.49-.34,2.14,2.14,0,0,0,.88-1,3.57,3.57,0,0,0,.3-1.53,3.66,3.66,0,0,0-.29-1.51,2.07,2.07,0,0,0-.86-1,2.72,2.72,0,0,0-1.42-.35h-1.41Z"
         id="path483" />
      <path
         d="M643.33,196.51a17.51,17.51,0,0,1,17.5-17.5v17.5Z"
         style="fill:#7c2c77"
         id="path485" />
      <path
         d="M660.83,187.76a8.76,8.76,0,0,1,8.75,8.75h-8.75Z"
         style="fill:#7c2c77;isolation:isolate;opacity:0.75"
         id="path487" />
      <path
         d="M679.31,196.51A18.47,18.47,0,0,1,660.83,215V196.51Z"
         style="fill:#00e1b3;isolation:isolate;opacity:0.5"
         id="path489" />
      <path
         d="M660.83,204.86a8.35,8.35,0,0,1-8.34-8.35h8.34Z"
         style="fill:#00e1b3"
         id="path491" />
    </g>
    <g
       class="countrypoint"
       id="SGP">
      <path
         d="M485.69,185.06a1.1,1.1,0,0,0-.52-.84,2,2,0,0,0-1.11-.3,2,2,0,0,0-.85.16,1.36,1.36,0,0,0-.56.43,1,1,0,0,0-.2.62.89.89,0,0,0,.14.5,1.2,1.2,0,0,0,.36.35,2.77,2.77,0,0,0,.46.22l.45.14.74.2c.19.05.4.12.63.2a3.11,3.11,0,0,1,.67.36,1.85,1.85,0,0,1,.53.58,1.64,1.64,0,0,1,.21.86,1.91,1.91,0,0,1-.31,1.07,2.14,2.14,0,0,1-.89.75,3.78,3.78,0,0,1-2.78,0,2.1,2.1,0,0,1-.89-.7,2,2,0,0,1-.37-1.05h.91a1.07,1.07,0,0,0,.28.68,1.51,1.51,0,0,0,.61.4,2.69,2.69,0,0,0,.81.13,2.38,2.38,0,0,0,.91-.17,1.44,1.44,0,0,0,.63-.46,1.07,1.07,0,0,0,.24-.69.86.86,0,0,0-.2-.59,1.41,1.41,0,0,0-.54-.37,4.55,4.55,0,0,0-.71-.25l-.89-.26a3.19,3.19,0,0,1-1.35-.7,1.54,1.54,0,0,1-.5-1.19,1.76,1.76,0,0,1,.33-1.06,2.17,2.17,0,0,1,.89-.71,3.22,3.22,0,0,1,2.51,0,2.16,2.16,0,0,1,.87.69,1.62,1.62,0,0,1,.34,1Zm7.37.45a2.71,2.71,0,0,0-.31-.64,1.91,1.91,0,0,0-.45-.49,2,2,0,0,0-.59-.31,2.37,2.37,0,0,0-.72-.1,2.21,2.21,0,0,0-1.18.33,2.33,2.33,0,0,0-.84,1,3.68,3.68,0,0,0-.31,1.6,3.61,3.61,0,0,0,.31,1.59,2.33,2.33,0,0,0,.86,1,2.27,2.27,0,0,0,1.21.33,2.16,2.16,0,0,0,1.1-.27,1.89,1.89,0,0,0,.75-.76,2.37,2.37,0,0,0,.27-1.16l.27.06h-2.19v-.78H494v.78a3,3,0,0,1-.38,1.56,2.6,2.6,0,0,1-1.05,1,3.21,3.21,0,0,1-1.54.36,3.14,3.14,0,0,1-1.69-.45,3.05,3.05,0,0,1-1.14-1.29,4.56,4.56,0,0,1-.4-2,4.64,4.64,0,0,1,.23-1.55,3.15,3.15,0,0,1,.66-1.18,2.81,2.81,0,0,1,1-.75,3.2,3.2,0,0,1,1.29-.26,3.12,3.12,0,0,1,1.07.18,2.83,2.83,0,0,1,.89.48,3,3,0,0,1,.66.75,3.08,3.08,0,0,1,.36,1Zm2.46,5v-7.27H498a2.77,2.77,0,0,1,1.4.31,2,2,0,0,1,.81.83,2.6,2.6,0,0,1,.26,1.16,2.64,2.64,0,0,1-.26,1.17,2,2,0,0,1-.8.84,2.9,2.9,0,0,1-1.4.31h-1.76v-.78H498a1.86,1.86,0,0,0,1-.21,1.21,1.21,0,0,0,.51-.54,1.86,1.86,0,0,0,.16-.79,1.78,1.78,0,0,0-.16-.78,1.18,1.18,0,0,0-.52-.54,2,2,0,0,0-.95-.2H496.4v6.49Z"
         id="path494" />
      <path
         d="M451.58,196.51a26.26,26.26,0,0,1,26.25-26.25v26.25Z"
         style="fill:#7c2c77"
         id="path496" />
      <path
         d="M477.83,194.76a1.76,1.76,0,0,1,1.75,1.75h-1.75Z"
         style="fill:#7c2c77;isolation:isolate;opacity:0.75"
         id="path498" />
      <path
         d="M505.52,196.51a27.69,27.69,0,0,1-27.69,27.69V196.51Z"
         style="fill:#00e1b3;isolation:isolate;opacity:0.5"
         id="path500" />
      <path
         d="M477.83,216.19a19.67,19.67,0,0,1-19.67-19.68h19.67Z"
         style="fill:#00e1b3"
         id="path502" />
    </g>
    <g
       class="countrypoint"
       id="KGZ">
      <path
         d="M366.71,177.51v-7.27h.88v3.61h.09l3.27-3.61h1.15L369,173.52l3.06,4H371l-2.53-3.38-.91,1v2.35Zm11.16-5a3.16,3.16,0,0,0-.31-.64,2.34,2.34,0,0,0-.45-.49,2.08,2.08,0,0,0-.59-.31,2.43,2.43,0,0,0-.73-.1,2.15,2.15,0,0,0-1.17.33,2.28,2.28,0,0,0-.85,1,3.83,3.83,0,0,0-.31,1.6,3.6,3.6,0,0,0,.32,1.59,2.18,2.18,0,0,0,2.07,1.32,2.19,2.19,0,0,0,1.1-.27,1.89,1.89,0,0,0,.75-.76,2.48,2.48,0,0,0,.26-1.16l.28.06h-2.19v-.78h2.77v.78a3,3,0,0,1-.39,1.56,2.6,2.6,0,0,1-1.05,1,3.43,3.43,0,0,1-3.23-.09,3.1,3.1,0,0,1-1.13-1.29,4.42,4.42,0,0,1-.41-2,4.91,4.91,0,0,1,.23-1.55,3.45,3.45,0,0,1,.66-1.18,2.84,2.84,0,0,1,1-.75,3.18,3.18,0,0,1,1.28-.26,3.08,3.08,0,0,1,1.07.18,2.88,2.88,0,0,1,.9.48,2.75,2.75,0,0,1,.65.75,2.65,2.65,0,0,1,.36,1Zm2.21,5v-.64L384,171h-4v-.78h5v.64l-3.92,5.85h4v.78Z"
         id="path505" />
      <path
         d="M335.58,196.51a26.26,26.26,0,0,1,26.25-26.25v26.25Z"
         style="fill:#7c2c77"
         id="path507" />
      <path
         d="M361.83,179a17.5,17.5,0,0,1,17.5,17.5h-17.5Z"
         style="fill:#7c2c77;isolation:isolate;opacity:0.75"
         id="path509" />
    </g>
    <g
       class="countrypoint"
       id="KOR">
      <path
         d="M234.71,190.51v-7.27h.88v3.61h.09l3.27-3.61h1.15L237,186.52l3.06,4H239l-2.53-3.38-.91,1v2.35ZM247,186.88a4.56,4.56,0,0,1-.41,2,3.19,3.19,0,0,1-1.14,1.29,3.11,3.11,0,0,1-1.66.45,3,3,0,0,1-2.79-1.74,4.92,4.92,0,0,1,0-4,3,3,0,0,1,2.79-1.75,3,3,0,0,1,1.66.46,3.13,3.13,0,0,1,1.14,1.29A4.53,4.53,0,0,1,247,186.88Zm-.85,0a3.68,3.68,0,0,0-.32-1.6,2.28,2.28,0,0,0-.85-1,2.2,2.2,0,0,0-1.19-.33,2.26,2.26,0,0,0-1.2.33,2.42,2.42,0,0,0-.85,1,3.83,3.83,0,0,0-.31,1.6,3.75,3.75,0,0,0,.31,1.59,2.45,2.45,0,0,0,.85,1,2.26,2.26,0,0,0,1.2.33,2.2,2.2,0,0,0,1.19-.33,2.31,2.31,0,0,0,.85-1A3.6,3.6,0,0,0,246.18,186.88Zm2.33,3.63v-7.27H251a3,3,0,0,1,1.4.29,1.93,1.93,0,0,1,.81.79,2.53,2.53,0,0,1,.26,1.15,2.46,2.46,0,0,1-.26,1.14,1.91,1.91,0,0,1-.81.78,3,3,0,0,1-1.39.28h-2v-.79h2a2.26,2.26,0,0,0,.94-.17,1.13,1.13,0,0,0,.52-.49,1.6,1.6,0,0,0,.16-.75,1.67,1.67,0,0,0-.16-.76,1.12,1.12,0,0,0-.52-.51,2.14,2.14,0,0,0-.95-.18h-1.55v6.49Zm3.42-3.26,1.8,3.26h-1l-1.76-3.26Z"
         id="path512" />
      <path
         d="M212.33,196.51a17.51,17.51,0,0,1,17.5-17.5v17.5Z"
         style="fill:#7c2c77"
         id="path514" />
      <path
         d="M229.83,194.76a1.76,1.76,0,0,1,1.75,1.75h-1.75Z"
         style="fill:#7c2c77;isolation:isolate;opacity:0.75"
         id="path516" />
      <path
         d="M230.48,196.51a.64.64,0,0,1-.19.46.61.61,0,0,1-.46.2v-.66Z"
         style="fill:#00e1b3;isolation:isolate;opacity:0.75"
         id="path518" />
    </g>
    <g
       class="countrypoint"
       id="CHN">
      <path
         d="M178.57,185.51h-.89a1.77,1.77,0,0,0-.27-.66,1.83,1.83,0,0,0-.47-.49,2.11,2.11,0,0,0-.6-.3,2.74,2.74,0,0,0-.7-.09,2.26,2.26,0,0,0-1.2.33,2.35,2.35,0,0,0-.85,1,3.68,3.68,0,0,0-.31,1.6,3.61,3.61,0,0,0,.31,1.59,2.38,2.38,0,0,0,.85,1,2.26,2.26,0,0,0,1.2.33,2.37,2.37,0,0,0,.7-.1,1.88,1.88,0,0,0,.6-.3,1.79,1.79,0,0,0,.47-.48,1.82,1.82,0,0,0,.27-.67h.89a2.92,2.92,0,0,1-.37,1,2.66,2.66,0,0,1-1.53,1.21,3.33,3.33,0,0,1-2.69-.29,3.19,3.19,0,0,1-1.14-1.29,5,5,0,0,1,0-4A3.13,3.13,0,0,1,174,183.6a3,3,0,0,1,1.66-.46,3.13,3.13,0,0,1,1,.16,2.76,2.76,0,0,1,.88.47,2.48,2.48,0,0,1,.65.75A2.86,2.86,0,0,1,178.57,185.51Zm1.42,5v-7.27h.88v3.24h3.88v-3.24h.88v7.27h-.88v-3.25h-3.88v3.25Zm13.17-7.27v7.27h-.85l-4-5.71h-.07v5.71h-.88v-7.27h.85l4,5.73h.07v-5.73Z"
         id="path521" />
      <path
         d="M166.08,196.51a1.74,1.74,0,0,1,.52-1.23,1.73,1.73,0,0,1,1.23-.52v1.75Z"
         style="fill:#7c2c77"
         id="path523" />
      <path
         d="M167.83,194.76a1.76,1.76,0,0,1,1.75,1.75h-1.75Z"
         style="fill:#7c2c77;isolation:isolate;opacity:0.75"
         id="path525" />
    </g>
    <g
       class="countrypoint"
       id="ISR">
      <path
         d="M113.59,170.24v7.27h-.88v-7.27Zm5.75,1.82a1.15,1.15,0,0,0-.52-.84,2.26,2.26,0,0,0-2-.14,1.3,1.3,0,0,0-.56.43,1,1,0,0,0-.2.62.82.82,0,0,0,.14.5,1.2,1.2,0,0,0,.36.35,2.77,2.77,0,0,0,.46.22l.44.14.74.2c.19.05.4.12.63.2a3.17,3.17,0,0,1,.68.36,1.85,1.85,0,0,1,.53.58,1.64,1.64,0,0,1,.21.86,2,2,0,0,1-.31,1.07,2.11,2.11,0,0,1-.9.75,3.21,3.21,0,0,1-1.42.28,3.29,3.29,0,0,1-1.35-.25,2.19,2.19,0,0,1-.9-.7,2,2,0,0,1-.36-1.05H116a1.12,1.12,0,0,0,.27.68,1.55,1.55,0,0,0,.62.4,2.64,2.64,0,0,0,.81.13,2.38,2.38,0,0,0,.91-.17,1.56,1.56,0,0,0,.63-.46,1.07,1.07,0,0,0,.24-.69.82.82,0,0,0-.21-.59,1.3,1.3,0,0,0-.53-.37,4.94,4.94,0,0,0-.71-.25l-.9-.26a3.19,3.19,0,0,1-1.35-.7,1.53,1.53,0,0,1-.49-1.19,1.76,1.76,0,0,1,.33-1.06,2.17,2.17,0,0,1,.89-.71,3.22,3.22,0,0,1,2.51,0,2.16,2.16,0,0,1,.87.69,1.68,1.68,0,0,1,.34,1Zm2.4,5.45v-7.27h2.45a3,3,0,0,1,1.4.29,1.82,1.82,0,0,1,.81.79,2.41,2.41,0,0,1,.26,1.15,2.34,2.34,0,0,1-.26,1.14,1.83,1.83,0,0,1-.8.78,3,3,0,0,1-1.39.28h-2v-.79h2a2.26,2.26,0,0,0,.94-.17,1.06,1.06,0,0,0,.51-.49,1.6,1.6,0,0,0,.17-.75,1.67,1.67,0,0,0-.17-.76,1.07,1.07,0,0,0-.52-.51,2.12,2.12,0,0,0-1-.18h-1.54v6.49Zm3.42-3.26,1.79,3.26h-1l-1.77-3.26Z"
         id="path528" />
      <path
         d="M72.83,196.51a35,35,0,0,1,35-35v35Z"
         style="fill:#7c2c77"
         id="path530" />
      <path
         d="M107.83,179a17.5,17.5,0,0,1,17.5,17.5h-17.5Z"
         style="fill:#7c2c77;isolation:isolate;opacity:0.75"
         id="path532" />
      <path
         d="M119.86,196.51a12,12,0,0,1-12,12v-12Z"
         style="fill:#00e1b3;isolation:isolate;opacity:0.5"
         id="path534" />
      <path
         d="M107.83,203.63a7.1,7.1,0,0,1-7.11-7.12h7.11Z"
         style="fill:#00e1b3"
         id="path536" />
    </g>
    <g
       class="countrypoint"
       id="SAU">
      <path
         d="M51.69,172.06a1.12,1.12,0,0,0-.52-.84,2,2,0,0,0-1.11-.3,2,2,0,0,0-.85.16,1.36,1.36,0,0,0-.56.43,1,1,0,0,0-.2.62.89.89,0,0,0,.14.5A1.33,1.33,0,0,0,49,173a2.77,2.77,0,0,0,.46.22c.16.06.31.1.45.14l.74.2c.19.05.4.12.63.2a3.11,3.11,0,0,1,.67.36,1.85,1.85,0,0,1,.53.58,1.64,1.64,0,0,1,.21.86,1.91,1.91,0,0,1-.31,1.07,2.14,2.14,0,0,1-.89.75,3.78,3.78,0,0,1-2.78,0,2.1,2.1,0,0,1-.89-.7,2,2,0,0,1-.37-1.05h.91a1.13,1.13,0,0,0,.28.68,1.51,1.51,0,0,0,.61.4,2.75,2.75,0,0,0,.81.13,2.38,2.38,0,0,0,.91-.17,1.44,1.44,0,0,0,.63-.46,1.07,1.07,0,0,0,.24-.69.86.86,0,0,0-.2-.59,1.41,1.41,0,0,0-.54-.37,4.55,4.55,0,0,0-.71-.25l-.89-.26a3.19,3.19,0,0,1-1.35-.7,1.51,1.51,0,0,1-.5-1.19,1.76,1.76,0,0,1,.33-1.06,2.17,2.17,0,0,1,.89-.71,3.22,3.22,0,0,1,2.51,0,2.16,2.16,0,0,1,.87.69,1.62,1.62,0,0,1,.34,1Zm2.7,5.45h-.93l2.68-7.27H57l2.67,7.27h-.92l-2.17-6.12h-.06Zm.34-2.84h3.72v.78H54.73Zm10.89-4.43h.88v4.82a2.59,2.59,0,0,1-.35,1.33,2.49,2.49,0,0,1-1,.92,3.25,3.25,0,0,1-1.5.33,3.21,3.21,0,0,1-1.49-.33,2.46,2.46,0,0,1-1.33-2.25v-4.82h.88V175a1.92,1.92,0,0,0,.23.94,1.68,1.68,0,0,0,.67.65,2.4,2.4,0,0,0,2.09,0,1.68,1.68,0,0,0,.67-.65,1.92,1.92,0,0,0,.23-.94Z"
         id="path539" />
      <path
         d="M26.33,196.51A17.51,17.51,0,0,1,43.83,179v17.5Z"
         style="fill:#7c2c77"
         id="path541" />
      <path
         d="M43.83,187.76a8.76,8.76,0,0,1,8.75,8.75H43.83Z"
         style="fill:#7c2c77;isolation:isolate;opacity:0.75"
         id="path543" />
    </g>
  </g>
</svg>
