<?xml version="1.0" encoding="UTF-8" standalone="no"?>
<svg
   width="295.90222"
   height="327.8613"
   viewBox="0 0 295.90222 327.8613"
   fill="none"
   version="1.1"
   id="svg81"
   sodipodi:docname="cta.svg"
   inkscape:version="1.2.1 (9c6d41e, 2022-07-14)"
   xmlns:inkscape="http://www.inkscape.org/namespaces/inkscape"
   xmlns:sodipodi="http://sodipodi.sourceforge.net/DTD/sodipodi-0.dtd"
   xmlns="http://www.w3.org/2000/svg"
   xmlns:svg="http://www.w3.org/2000/svg">
  <sodipodi:namedview
     id="namedview83"
     pagecolor="#ffffff"
     bordercolor="#000000"
     borderopacity="0.25"
     inkscape:showpageshadow="2"
     inkscape:pageopacity="0.0"
     inkscape:pagecheckerboard="0"
     inkscape:deskcolor="#d1d1d1"
     showgrid="false"
     inkscape:zoom="1.4390244"
     inkscape:cx="122.65254"
     inkscape:cy="166.4322"
     inkscape:window-width="1440"
     inkscape:window-height="783"
     inkscape:window-x="0"
     inkscape:window-y="25"
     inkscape:window-maximized="0"
     inkscape:current-layer="svg81" />
  <g
     id="g226"
     transform="matrix(2,0,0,2,-0.02305054,-0.03269786)">
    <g
       clip-path="url(#clip0_89_1437)"
       id="g74">
      <g
         id="decentralised">
        <path
           d="M 74.3623,89.1716 147.642,24.6053"
           stroke="#000000"
           stroke-width="0.97"
           stroke-miterlimit="10"
           id="path9" />
        <path
           d="M 74.3623,89.1716 147.642,115.963"
           stroke="#000000"
           stroke-width="0.97"
           stroke-miterlimit="10"
           id="path11" />
        <path
           d="M 74.3407,89.344 0.162109,65.1155"
           stroke="#000000"
           stroke-width="0.97"
           stroke-miterlimit="10"
           id="path13" />
      </g>
      <g
         id="centralised">
        <path
           d="M 101.319,21.1057 H 47.4064 c -5.1777,0 -9.3752,4.1751 -9.3752,9.3253 v 123.705 c 0,5.151 4.1975,9.326 9.3752,9.326 h 53.9126 c 5.178,0 9.375,-4.175 9.375,-9.326 V 30.431 c 0,-5.1502 -4.197,-9.3253 -9.375,-9.3253 z"
           fill="#ffffff"
           stroke="#000000"
           stroke-width="0.97"
           stroke-miterlimit="10"
           id="path16" />
      </g>
      <g
         id="vaccine">
        <path
           d="m 47.9154,77.3051 -3.4642,5.9871"
           stroke="#000000"
           stroke-width="0.97"
           stroke-miterlimit="10"
           id="path19" />
        <path
           d="m 65.9839,46.1957 -2.0894,3.575"
           stroke="#000000"
           stroke-width="0.97"
           stroke-miterlimit="10"
           id="path21" />
        <path
           d="m 64.0029,45.0542 3.9515,2.2721"
           stroke="#000000"
           stroke-width="0.97"
           stroke-miterlimit="10"
           id="path23" />
        <path
           d="m 59.791,47.574 8.0761,4.6303"
           stroke="#000000"
           stroke-width="0.97"
           stroke-miterlimit="10"
           id="path25" />
        <path
           d="M 56.7822,67.5275 53.8809,65.8584"
           stroke="#000000"
           stroke-width="0.97"
           stroke-miterlimit="10"
           id="path27" />
        <path
           d="M 61.5019,59.3975 58.6006,57.7284"
           stroke="#000000"
           stroke-width="0.97"
           stroke-miterlimit="10"
           id="path29" />
        <path
           d="m 66.2761,51.289 -4.8825,-2.7997 -14.1601,24.3792 1.5047,0.8615 -1.7646,3.0366 1.8837,1.0768 1.7646,-3.0258 1.5048,0.8614 z"
           stroke="#000000"
           stroke-width="0.97"
           stroke-miterlimit="10"
           id="path31" />
      </g>
      <g
         id="gaen">
        <path
           d="m 44.4507,29.9033 c 1.2914,0 2.3384,-1.0413 2.3384,-2.3259 0,-1.2846 -1.047,-2.3259 -2.3384,-2.3259 -1.2915,0 -2.3384,1.0413 -2.3384,2.3259 0,1.2846 1.0469,2.3259 2.3384,2.3259 z"
           fill="#ffffff"
           stroke="#000000"
           stroke-miterlimit="10"
           id="path34" />
        <path
           d="M 36.7642,19.9427 22.7881,6.03015"
           stroke="#000000"
           stroke-width="0.97"
           stroke-miterlimit="10"
           id="path36" />
        <path
           d="M 46.2917,13.9018 41.2686,0.183105"
           stroke="#000000"
           stroke-width="0.97"
           stroke-miterlimit="10"
           id="path38" />
        <path
           d="M 30.7023,29.408 16.9102,24.4224"
           stroke="#000000"
           stroke-width="0.97"
           stroke-miterlimit="10"
           id="path40" />
      </g>
      <path
         d="M 38.0312,37.9364 H 110.694"
         stroke="#000000"
         stroke-width="0.97"
         stroke-miterlimit="10"
         id="path43" />
      <path
         d="M 38.0312,140.407 H 110.694"
         stroke="#000000"
         stroke-width="0.97"
         stroke-miterlimit="10"
         id="path45" />
      <path
         d="M 74.3623,37.9364 V 140.407"
         stroke="#000000"
         stroke-width="1.08"
         stroke-miterlimit="10"
         id="path47" />
      <path
         d="M 38.0312,89.1716 H 110.694"
         stroke="#000000"
         stroke-width="1.13"
         stroke-miterlimit="10"
         id="path49" />
      <g
         id="bluetooth">
        <path
           d="M 104.849,106.282 90.0283,97.7754 v 17.0136 z"
           fill="#ffffff"
           stroke="#000000"
           stroke-width="1.08"
           stroke-miterlimit="10"
           id="path51" />
        <path
           d="m 104.849,123.307 -14.8207,-8.518 v 17.025 z"
           fill="#ffffff"
           stroke="#000000"
           stroke-width="1.08"
           stroke-miterlimit="10"
           id="path53" />
        <path
           d="m 80.209,120.432 9.819,-5.643 -9.819,-5.632"
           fill="#ffffff"
           id="path55" />
        <path
           d="m 80.209,120.432 9.819,-5.643 -9.819,-5.632"
           stroke="#000000"
           stroke-width="1.08"
           stroke-miterlimit="10"
           id="path57" />
      </g>
      <g
         id="qr">
        <path
           d="M 106.407,49.8461 H 78.6494 v 27.6097 h 27.7576 z"
           fill="#ffffff"
           stroke="#000000"
           stroke-width="0.97"
           stroke-miterlimit="10"
           id="path60" />
        <path
           d="M 103.625,52.6028 H 81.4209 v 22.0856 h 22.2041 z"
           fill="#ffffff"
           stroke="#000000"
           stroke-width="0.97"
           stroke-miterlimit="10"
           id="path62" />
        <path
           d="M 100.637,55.5963 H 84.4307 v 16.12 h 16.2063 z"
           fill="#ffffff"
           stroke="#000000"
           stroke-width="0.97"
           stroke-miterlimit="10"
           id="path64" />
        <path
           d="m 97.1723,58.9237 h -9.2778 v 9.2284 h 9.2778 z"
           fill="#ffffff"
           stroke="#000000"
           stroke-width="0.97"
           stroke-miterlimit="10"
           id="path66" />
      </g>
      <g
         id="location">
        <path
           d="m 66.3511,107.618 c 0.0325,-0.453 0.0108,-0.7 0.0108,-0.7 -0.1732,-5.083 -4.6551,-9.1426 -10.1546,-9.1426 -5.4995,0 -9.9814,4.0706 -10.1546,9.1426 0,0 -0.0109,0.226 0,0.656 0.0216,0.539 0.0866,1.077 0.2057,1.583 0.5737,3.048 2.6415,8.863 9.9597,15.205 7.3724,-6.396 9.4185,-12.254 9.9706,-15.28 0.0974,-0.474 0.1624,-0.969 0.1841,-1.475 z"
           fill="#ffffff"
           stroke="#000000"
           stroke-width="1.13"
           stroke-miterlimit="10"
           id="path69" />
        <path
           d="m 56.1964,131.814 c 1.2615,0 2.2842,-1.018 2.2842,-2.272 0,-1.255 -1.0227,-2.272 -2.2842,-2.272 -1.2616,0 -2.2843,1.017 -2.2843,2.272 0,1.254 1.0227,2.272 2.2843,2.272 z"
           fill="#ffffff"
           stroke="#000000"
           stroke-width="1.13"
           stroke-miterlimit="10"
           id="path71" />
      </g>
    </g>
  </g>
  <defs
     id="defs79">
    <clipPath
       id="clip0_89_1437">
      <rect
         width="148"
         height="164"
         fill="#ffffff"
         id="rect76"
         x="0"
         y="0" />
    </clipPath>
  </defs>
</svg>
