<svg width="230" height="239" viewBox="0 0 230 239" fill="none" xmlns="http://www.w3.org/2000/svg">
<g clip-path="url(#clip0_81_8113)">
<path d="M109.75 129.951L217.194 35.8579" stroke="black" stroke-width="2" stroke-miterlimit="10"/>
<path d="M109.75 129.951L217.194 168.995" stroke="black" stroke-width="2" stroke-miterlimit="10"/>
<path d="M109.718 130.203L0.956299 94.894" stroke="black" stroke-width="2" stroke-miterlimit="10"/>
<path d="M149.274 30.7578H70.2263C62.6345 30.7578 56.4802 36.8422 56.4802 44.3477V224.626C56.4802 232.131 62.6345 238.215 70.2263 238.215H149.274C156.866 238.215 163.02 232.131 163.02 224.626V44.3477C163.02 36.8422 156.866 30.7578 149.274 30.7578Z" fill="white" stroke="black" stroke-width="2" stroke-miterlimit="10"/>
<path d="M70.9722 112.658L65.8928 121.383" stroke="black" stroke-width="2" stroke-miterlimit="10"/>
<path d="M97.4641 67.3218L94.4006 72.5318" stroke="black" stroke-width="2" stroke-miterlimit="10"/>
<path d="M94.5596 65.6582L100.353 68.9694" stroke="black" stroke-width="2" stroke-miterlimit="10"/>
<path d="M88.3848 69.3301L100.226 76.0779" stroke="black" stroke-width="2" stroke-miterlimit="10"/>
<path d="M83.9722 98.4089L79.7183 95.9766" stroke="black" stroke-width="2" stroke-miterlimit="10"/>
<path d="M90.8929 86.5608L86.6389 84.1284" stroke="black" stroke-width="2" stroke-miterlimit="10"/>
<path d="M97.8929 74.7442L90.7342 70.6641L69.9723 106.192L72.1786 107.448L69.5913 111.873L72.3532 113.442L74.9405 109.033L77.1469 110.288L97.8929 74.7442Z" stroke="black" stroke-width="2" stroke-miterlimit="10"/>
<path d="M65.8929 43.5786C67.7865 43.5786 69.3215 42.061 69.3215 40.1889C69.3215 38.3169 67.7865 36.7993 65.8929 36.7993C63.9994 36.7993 62.4644 38.3169 62.4644 40.1889C62.4644 42.061 63.9994 43.5786 65.8929 43.5786Z" fill="white" stroke="black" stroke-width="2" stroke-miterlimit="10"/>
<path d="M54.6229 29.0631L34.1309 8.78809" stroke="black" stroke-width="2" stroke-miterlimit="10"/>
<path d="M68.5912 20.2591L61.2261 0.266602" stroke="black" stroke-width="2" stroke-miterlimit="10"/>
<path d="M45.7342 42.857L25.512 35.5913" stroke="black" stroke-width="2" stroke-miterlimit="10"/>
<path d="M56.4802 55.2856H163.02" stroke="black" stroke-width="2" stroke-miterlimit="10"/>
<path d="M56.4802 204.617H163.02" stroke="black" stroke-width="2" stroke-miterlimit="10"/>
<path d="M109.75 55.2856V204.617" stroke="black" stroke-width="2" stroke-miterlimit="10"/>
<path d="M56.4802 129.951H163.02" stroke="black" stroke-width="2" stroke-miterlimit="10"/>
<path d="M154.448 154.887L132.718 142.49V167.284L154.448 154.887Z" fill="white" stroke="black" stroke-width="2" stroke-miterlimit="10"/>
<path d="M154.448 179.697L132.718 167.284V192.094L154.448 179.697Z" fill="white" stroke="black" stroke-width="2" stroke-miterlimit="10"/>
<path d="M118.322 175.507L132.718 167.284L118.322 159.077" fill="white"/>
<path d="M118.322 175.507L132.718 167.284L118.322 159.077" stroke="black" stroke-width="2" stroke-miterlimit="10"/>
<path d="M156.734 72.6416H116.036V112.878H156.734V72.6416Z" fill="white" stroke="black" stroke-width="2" stroke-miterlimit="10"/>
<path d="M150 79H123V107H150V79Z" fill="white" stroke="black" stroke-width="2" stroke-miterlimit="10"/>
<path d="M143.194 85.8706H129.591V99.3193H143.194V85.8706Z" fill="white" stroke="black" stroke-width="2" stroke-miterlimit="10"/>
<path d="M98.0041 156.833C98.0517 156.174 98.0199 155.813 98.0199 155.813C97.766 148.406 91.1945 142.49 83.131 142.49C75.0676 142.49 68.4961 148.422 68.2422 155.813C68.2422 155.813 68.2263 156.142 68.2422 156.77C68.2739 157.555 68.3691 158.339 68.5437 159.077C69.385 163.518 72.4168 171.992 83.1469 181.235C93.9564 171.914 96.9564 163.377 97.766 158.967C97.9088 158.277 98.0041 157.555 98.0358 156.817L98.0041 156.833Z" fill="white" stroke="black" stroke-width="2" stroke-miterlimit="10"/>
<path d="M83.1151 192.094C84.9648 192.094 86.4643 190.612 86.4643 188.783C86.4643 186.955 84.9648 185.472 83.1151 185.472C81.2654 185.472 79.7659 186.955 79.7659 188.783C79.7659 190.612 81.2654 192.094 83.1151 192.094Z" fill="white" stroke="black" stroke-width="2" stroke-miterlimit="10"/>
<path d="M15.7895 14.5961H17.4415V20.9521H19.1915V12.1041H17.9035C17.5815 13.0281 17.0215 13.4481 15.7895 13.4481V14.5961Z" fill="black"/>
<path d="M145.732 20.6596L147.132 19.5396C148.462 18.4756 149.554 17.4816 149.554 15.9276C149.554 14.3596 148.49 13.1556 146.39 13.1556C144.444 13.1556 143.142 14.3456 143.142 16.1936C143.142 16.4596 143.184 16.7396 143.24 17.0196L144.976 17.0896C144.906 16.8516 144.878 16.6136 144.878 16.3196C144.878 15.2976 145.368 14.6256 146.348 14.6256C147.3 14.6256 147.72 15.2136 147.72 16.0256C147.72 17.0896 146.964 17.7896 145.592 18.9376L143.128 20.9676V22.1436H149.778V20.6596H145.732Z" fill="black"/>
<path d="M66.9368 58.0975H64.8228L60.7348 63.1655V64.7895H65.2148V66.9175H66.9368V64.7895H68.2808V63.3335H66.9368V58.0975ZM65.2148 59.6375V63.3335H62.2468L65.2148 59.6375Z" fill="black"/>
<path d="M119.837 58.0975H114.503C114.461 59.5535 114.153 61.8355 113.929 63.0535L115.637 63.1795C115.917 62.7035 116.407 62.3115 117.191 62.3115C118.213 62.3115 118.801 63.0395 118.801 63.9915C118.801 65.0275 118.171 65.6715 117.177 65.6715C116.085 65.6715 115.497 64.9995 115.497 63.9355L113.789 63.8095C113.719 65.7975 114.937 67.0855 117.163 67.0855C119.095 67.0855 120.453 65.8675 120.453 63.9775C120.453 62.3115 119.431 60.9675 117.401 60.9675C116.519 60.9675 115.917 61.2895 115.553 61.6535C115.637 61.2615 115.791 60.0855 115.805 59.6515H119.837V58.0975Z" fill="black"/>
<path d="M64.6128 135.363C65.5648 135.363 66.0688 135.881 66.1808 136.707L67.8188 136.665C67.6648 134.957 66.4608 133.963 64.6408 133.963C62.1348 133.963 60.9028 135.923 60.9028 138.653C60.9028 141.397 62.1768 143.119 64.5848 143.119C66.5728 143.119 67.9168 141.915 67.9168 140.067C67.9168 138.345 66.7408 137.141 64.8228 137.141C63.6608 137.141 62.8488 137.701 62.4988 138.485C62.5268 136.651 63.2128 135.363 64.6128 135.363ZM62.8628 140.109C62.8628 139.115 63.4788 138.471 64.5428 138.471C65.6208 138.471 66.2368 139.115 66.2368 140.109C66.2368 141.075 65.6208 141.733 64.5568 141.733C63.5068 141.733 62.8628 141.061 62.8628 140.109Z" fill="black"/>
<path d="M118.143 135.713C116.379 137.603 115.525 139.941 115.483 142.951H117.401C117.415 140.081 117.835 137.687 120.075 135.405V134.131H113.621V135.713H118.143Z" fill="black"/>
</g>
<path d="M225.498 29.8661C225.498 30.9161 224.7 31.4761 223.552 31.4761C222.222 31.4761 221.368 30.7621 221.34 29.3621L220.15 29.3061C220.15 31.2661 221.438 32.4561 223.538 32.4561C225.484 32.4561 226.716 31.4201 226.716 29.9501C226.716 28.8021 225.904 27.9901 224.826 27.8361C225.694 27.6961 226.534 26.9261 226.534 25.7921C226.534 24.3081 225.456 23.3001 223.51 23.3001C221.522 23.3001 220.304 24.6301 220.304 26.4501L221.48 26.4921C221.48 25.0921 222.25 24.2801 223.496 24.2801C224.714 24.2801 225.33 24.9381 225.33 25.8901C225.33 27.0241 224.476 27.4021 223.552 27.4021C223.16 27.4021 222.908 27.3881 222.712 27.3601V28.3541C222.922 28.3261 223.202 28.3121 223.552 28.3121C224.658 28.3121 225.498 28.8581 225.498 29.8661Z" fill="black"/>
<defs>
<clipPath id="clip0_81_8113">
<rect width="217" height="239" fill="white" transform="translate(0.718262)"/>
</clipPath>
</defs>
</svg>
