<svg width="78" height="130" viewBox="0 0 78 130" fill="none" xmlns="http://www.w3.org/2000/svg">
<path d="M76.4494 40.7514C76.5562 38.9534 76.4882 37.9762 76.4882 37.9762H76.4494C75.7989 17.7194 59.2843 1.49829 39.0028 1.49829C18.7212 1.49829 2.19694 17.7194 1.54646 37.9762H1.51733C1.51733 37.9762 1.45908 38.8947 1.55617 40.5852C1.63384 42.7448 1.87655 44.8555 2.30374 46.9076C4.42024 59.0734 12.0319 82.2617 39.0125 107.561C66.2164 82.0663 73.7309 58.702 75.7795 46.6144C76.1581 44.7089 76.3814 42.7448 76.4688 40.7514H76.4494Z" fill="white" stroke="black" stroke-width="1.01" stroke-miterlimit="10"/>
<path d="M39.0028 67.0082C54.247 67.0082 66.6048 54.5701 66.6048 39.2271C66.6048 23.884 54.247 11.446 39.0028 11.446C23.7587 11.446 11.4009 23.884 11.4009 39.2271C11.4009 54.5701 23.7587 67.0082 39.0028 67.0082Z" fill="white" stroke="#C35414" stroke-width="1.05" stroke-miterlimit="10"/>
<path d="M39.0029 128.482C43.6571 128.482 47.4301 124.685 47.4301 120C47.4301 115.316 43.6571 111.518 39.0029 111.518C34.3487 111.518 30.5757 115.316 30.5757 120C30.5757 124.685 34.3487 128.482 39.0029 128.482Z" fill="white" stroke="#C35414" stroke-width="1.05" stroke-miterlimit="10"/>
</svg>
