<svg width="144" height="129" viewBox="0 0 144 129" fill="none" xmlns="http://www.w3.org/2000/svg">
<path d="M96.3949 1H48.674C44.0908 1 40.3755 4.72641 40.3755 9.32317V119.735C40.3755 124.332 44.0908 128.058 48.674 128.058H96.3949C100.978 128.058 104.693 124.332 104.693 119.735V9.32317C104.693 4.72641 100.978 1 96.3949 1Z" fill="white" stroke="black" stroke-miterlimit="10"/>
<path d="M40.3755 16.0222H104.693" stroke="black" stroke-miterlimit="10"/>
<path d="M40.3755 107.481H104.693" stroke="black" stroke-miterlimit="10"/>
<path d="M72.5342 64.529L137.398 6.90112" stroke="#C35414" stroke-miterlimit="10"/>
<path d="M137.398 12.8024C140.648 12.8024 143.282 10.1603 143.282 6.90119C143.282 3.64205 140.648 1 137.398 1C134.149 1 131.515 3.64205 131.515 6.90119C131.515 10.1603 134.149 12.8024 137.398 12.8024Z" fill="white" stroke="#C35414" stroke-miterlimit="10"/>
<path d="M72.5342 64.5291L137.398 88.4317" stroke="#C35414" stroke-miterlimit="10"/>
<path d="M137.398 94.3329C140.648 94.3329 143.282 91.6908 143.282 88.4317C143.282 85.1726 140.648 82.5305 137.398 82.5305C134.149 82.5305 131.515 85.1726 131.515 88.4317C131.515 91.6908 134.149 94.3329 137.398 94.3329Z" fill="white" stroke="#C35414" stroke-miterlimit="10"/>
<path d="M72.5344 64.5289L6.875 42.9041" stroke="#C35414" stroke-miterlimit="10"/>
<path d="M6.87488 48.8053C10.1243 48.8053 12.7585 46.1633 12.7585 42.9041C12.7585 39.645 10.1243 37.0029 6.87488 37.0029C3.62542 37.0029 0.991211 39.645 0.991211 42.9041C0.991211 46.1633 3.62542 48.8053 6.87488 48.8053Z" fill="white" stroke="#C35414" stroke-miterlimit="10"/>
<path d="M72.5344 72.8716C77.1281 72.8716 80.8521 69.1365 80.8521 64.5292C80.8521 59.9218 77.1281 56.1868 72.5344 56.1868C67.9407 56.1868 64.2168 59.9218 64.2168 64.5292C64.2168 69.1365 67.9407 72.8716 72.5344 72.8716Z" fill="white" stroke="#C35414" stroke-miterlimit="10"/>
</svg>
