<svg width="146" height="130" viewBox="0 0 146 130" fill="none" xmlns="http://www.w3.org/2000/svg">
<path d="M96.4492 1H49.5602C22.7445 1 1 22.7445 1 49.5602C1 76.3759 22.7445 98.1204 49.5602 98.1204H59.1551C59.1551 98.1204 61.25 125.5 88.75 129C88.75 129 76.8849 111.327 86.8447 98.1204H96.4396C123.255 98.1204 145 76.3759 145 49.5602C145.009 22.7445 123.274 1 96.4492 1Z" fill="white" stroke="black" stroke-miterlimit="10" stroke-linejoin="round"/>
<path d="M73.0048 76.2416C87.9049 76.2416 99.9838 64.1627 99.9838 49.2626C99.9838 34.3626 87.9049 22.2837 73.0048 22.2837C58.1048 22.2837 46.0259 34.3626 46.0259 49.2626C46.0259 64.1627 58.1048 76.2416 73.0048 76.2416Z" fill="white" stroke="#C35414" stroke-miterlimit="10"/>
<path d="M90.6867 28.8916L54.814 69.192" stroke="#C35414" stroke-miterlimit="10"/>
<path d="M37.4402 49.2627H17.4341" stroke="#C35414" stroke-miterlimit="10"/>
<path d="M40.7719 34.2312L22.6387 25.7793" stroke="#C35414" stroke-miterlimit="10"/>
<path d="M40.7719 64.293L22.6387 72.7545" stroke="#C35414" stroke-miterlimit="10"/>
<path d="M108.57 49.2627H128.586" stroke="#C35414" stroke-miterlimit="10"/>
<path d="M105.238 34.2312L123.381 25.7793" stroke="#C35414" stroke-miterlimit="10"/>
<path d="M105.238 64.293L123.381 72.7545" stroke="#C35414" stroke-miterlimit="10"/>
</svg>
