<svg width="78" height="130" viewBox="0 0 78 130" fill="none" xmlns="http://www.w3.org/2000/svg">
<path d="M76.9998 15.1538H1.37256V129H76.9998V15.1538Z" stroke="black" stroke-miterlimit="10" stroke-linejoin="round"/>
<path d="M21.1177 80.6329C25.7828 76.0842 32.1665 73.2793 39.207 73.2793C46.2475 73.2793 52.6312 76.0842 57.2963 80.6329" stroke="#C35414" stroke-miterlimit="10"/>
<path d="M57.5036 80.4275C67.6092 70.3492 67.6092 54.0092 57.5036 43.9309C47.398 33.8527 31.0137 33.8527 20.9081 43.9309C10.8025 54.0092 10.8025 70.3492 20.9081 80.4275C31.0137 90.5057 47.398 90.5057 57.5036 80.4275Z" stroke="#C35414" stroke-miterlimit="10"/>
<path d="M21.1177 43.7258C25.7828 48.2746 32.1665 51.0795 39.207 51.0795C46.2475 51.0795 52.6312 48.2746 57.2963 43.7258" stroke="#C35414" stroke-miterlimit="10"/>
<path d="M39.207 36.3723V87.9862" stroke="#C35414" stroke-miterlimit="10"/>
<path d="M13.3301 62.1792H65.084" stroke="#C35414" stroke-miterlimit="10"/>
<path d="M39.2071 87.9862C45.847 87.9862 51.2297 76.432 51.2297 62.1793C51.2297 47.9265 45.847 36.3723 39.2071 36.3723C32.5672 36.3723 27.1846 47.9265 27.1846 62.1793C27.1846 76.432 32.5672 87.9862 39.2071 87.9862Z" stroke="#C35414" stroke-miterlimit="10"/>
<path d="M1 15.2563L65.4817 1V14.7435" stroke="black" stroke-linejoin="round"/>
<path d="M16.2207 102.743H62.1909" stroke="#C35414" stroke-linejoin="round"/>
<path d="M16.2207 109.102H62.1909" stroke="#C35414" stroke-linejoin="round"/>
</svg>
