<svg width="43" height="58" viewBox="0 0 43 58" fill="none" xmlns="http://www.w3.org/2000/svg">
<rect x="17.4849" y="25.3931" width="24.0582" height="31.875" fill="#FFD139" stroke="black"/>
<rect x="1.48438" y="1.26807" width="23.5195" height="32" fill="#FFD139" stroke="black"/>
<path d="M20.6289 29.3931C20.9051 29.3931 21.1289 29.1692 21.1289 28.8931L21.1289 24.3931C21.1289 24.1169 20.9051 23.8931 20.6289 23.8931C20.3528 23.8931 20.1289 24.1169 20.1289 24.3931L20.1289 28.3931L16.1289 28.3931C15.8528 28.3931 15.6289 28.6169 15.6289 28.8931C15.6289 29.1692 15.8528 29.3931 16.1289 29.3931L20.6289 29.3931ZM6.78512 15.7564L20.2754 29.2466L20.9825 28.5395L7.49223 15.0493L6.78512 15.7564Z" fill="black"/>
</svg>
