<svg width="43" height="58" viewBox="0 0 43 58" fill="none" xmlns="http://www.w3.org/2000/svg">
<rect x="17.4697" y="25.3931" width="24.0582" height="31.875" fill="#FFE89C" stroke="black"/>
<rect x="1.46924" y="1.26807" width="23.5195" height="32" fill="#D3A522" stroke="black"/>
<path d="M20.6138 29.3931C20.8899 29.3931 21.1138 29.1692 21.1138 28.8931L21.1138 24.3931C21.1138 24.1169 20.8899 23.8931 20.6138 23.8931C20.3376 23.8931 20.1138 24.1169 20.1138 24.3931L20.1138 28.3931L16.1138 28.3931C15.8376 28.3931 15.6138 28.6169 15.6138 28.8931C15.6138 29.1692 15.8376 29.3931 16.1138 29.3931L20.6138 29.3931ZM6.76998 15.7564L20.2602 29.2466L20.9673 28.5395L7.47709 15.0493L6.76998 15.7564Z" fill="black"/>
</svg>
