<svg width="42" height="58" viewBox="0 0 42 58" fill="none" xmlns="http://www.w3.org/2000/svg">
<rect x="16.5005" y="25.3931" width="24.0582" height="31.875" fill="#FFD139" stroke="black"/>
<rect x="0.5" y="1.26807" width="23.5195" height="32" fill="#FFD139" stroke="black"/>
<path d="M19.6445 29.3931C19.9207 29.3931 20.1445 29.1692 20.1445 28.8931L20.1445 24.3931C20.1445 24.1169 19.9207 23.8931 19.6445 23.8931C19.3684 23.8931 19.1445 24.1169 19.1445 24.3931L19.1445 28.3931L15.1445 28.3931C14.8684 28.3931 14.6445 28.6169 14.6445 28.8931C14.6445 29.1692 14.8684 29.3931 15.1445 29.3931L19.6445 29.3931ZM5.80074 15.7564L19.291 29.2466L19.9981 28.5395L6.50785 15.0493L5.80074 15.7564Z" fill="white"/>
<line x1="24.0195" y1="33.7681" x2="24.0195" y2="57.0181" stroke="black"/>
<line x1="32.2695" y1="24.8931" x2="32.2695" y2="57.7681" stroke="black"/>
<line x1="16.5195" y1="49.2681" x2="40.5195" y2="49.2681" stroke="black"/>
<line x1="16.5195" y1="41.2681" x2="40.5195" y2="41.2681" stroke="black"/>
<line x1="16.5195" y1="33.2681" x2="40.5195" y2="33.2681" stroke="black"/>
</svg>
