<svg width="42" height="58" viewBox="0 0 42 58" fill="none" xmlns="http://www.w3.org/2000/svg">
<rect x="17.186" y="25.3931" width="24.0582" height="31.875" fill="#FFD139" stroke="black"/>
<rect x="1.18555" y="1.26807" width="23.5195" height="32" fill="#FFD139" stroke="black"/>
<path d="M20.3301 29.3931C20.6062 29.3931 20.8301 29.1692 20.8301 28.8931L20.8301 24.3931C20.8301 24.1169 20.6062 23.8931 20.3301 23.8931C20.0539 23.8931 19.8301 24.1169 19.8301 24.3931L19.8301 28.3931L15.8301 28.3931C15.5539 28.3931 15.3301 28.6169 15.3301 28.8931C15.3301 29.1692 15.5539 29.3931 15.8301 29.3931L20.3301 29.3931ZM6.48629 15.7564L19.9765 29.2466L20.6836 28.5395L7.1934 15.0493L6.48629 15.7564Z" fill="black"/>
<line x1="24.7051" y1="33.7681" x2="24.7051" y2="57.0181" stroke="black"/>
<line x1="32.9551" y1="24.8931" x2="32.9551" y2="57.7681" stroke="black"/>
<line x1="17.2051" y1="49.2681" x2="41.2051" y2="49.2681" stroke="black"/>
<line x1="17.2051" y1="41.2681" x2="41.2051" y2="41.2681" stroke="black"/>
<line x1="17.2051" y1="33.2681" x2="41.2051" y2="33.2681" stroke="black"/>
</svg>
