<svg width="43" height="58" viewBox="0 0 43 58" fill="none" xmlns="http://www.w3.org/2000/svg">
<rect x="17.4575" y="25.3931" width="24.0582" height="31.875" fill="white" stroke="black"/>
<rect x="1.45703" y="1.26807" width="23.5195" height="32" fill="white" stroke="black"/>
<path d="M20.6016 29.3931C20.8777 29.3931 21.1016 29.1692 21.1016 28.8931L21.1016 24.3931C21.1016 24.1169 20.8777 23.8931 20.6016 23.8931C20.3254 23.8931 20.1016 24.1169 20.1016 24.3931L20.1016 28.3931L16.1016 28.3931C15.8254 28.3931 15.6016 28.6169 15.6016 28.8931C15.6016 29.1692 15.8254 29.3931 16.1016 29.3931L20.6016 29.3931ZM6.75777 15.7564L20.248 29.2466L20.9551 28.5395L7.46488 15.0493L6.75777 15.7564Z" fill="black"/>
</svg>
