<?xml version="1.0" encoding="UTF-8" standalone="no"?>
<svg
   width="63.38887"
   height="88"
   viewBox="0 0 63.38887 88"
   fill="none"
   version="1.1"
   id="svg19"
   sodipodi:docname="implementation_key.svg"
   inkscape:version="1.2.1 (9c6d41e, 2022-07-14)"
   xmlns:inkscape="http://www.inkscape.org/namespaces/inkscape"
   xmlns:sodipodi="http://sodipodi.sourceforge.net/DTD/sodipodi-0.dtd"
   xmlns="http://www.w3.org/2000/svg"
   xmlns:svg="http://www.w3.org/2000/svg">
  <defs
     id="defs23" />
  <sodipodi:namedview
     id="namedview21"
     pagecolor="#ffffff"
     bordercolor="#000000"
     borderopacity="0.25"
     inkscape:showpageshadow="2"
     inkscape:pageopacity="0.0"
     inkscape:pagecheckerboard="0"
     inkscape:deskcolor="#d1d1d1"
     showgrid="false"
     inkscape:zoom="1.4478528"
     inkscape:cx="31.080508"
     inkscape:cy="81.5"
     inkscape:window-width="1309"
     inkscape:window-height="456"
     inkscape:window-x="0"
     inkscape:window-y="25"
     inkscape:window-maximized="0"
     inkscape:current-layer="svg19" />
  <rect
     x="26.03417"
     y="37.745602"
     width="36.854698"
     height="49.754398"
     fill="#ffffff"
     stroke="#000000"
     id="rect9" />
  <rect
     x="0.5"
     y="0.5"
     width="36.854698"
     height="49.947399"
     fill="#ffffff"
     stroke="#000000"
     id="rect11" />
  <path
     d="m 34.01017,47.5726 c 0.2761,0 0.5,-0.2238 0.5,-0.5 v -4.5 c 0,-0.2761 -0.2239,-0.5 -0.5,-0.5 -0.2762,0 -0.5,0.2239 -0.5,0.5 v 4 h -4 c -0.2762,0 -0.5,0.2239 -0.5,0.5 0,0.2762 0.2238,0.5 0.5,0.5 z m -21.1806,-20.9734 20.827,20.827 0.7071,-0.7071 -20.827,-20.827 z"
     fill="#000000"
     id="path13" />
  <path
     d="m 9.09492,4.18 -3.57,8.82 h 1.764 l 0.854,-2.184 h 3.75195 l 0.882,2.184 h 1.862 l -3.598,-8.82 z m 0.88195,1.988 h 0.056 l 1.33,3.304 H 8.67492 Z"
     fill="#000000"
     id="path15" />
  <path
     d="m 55.52267,76.078 c 0,-1.26 -0.826,-1.96 -1.89,-2.156 0.952,-0.154 1.624,-0.854 1.624,-1.848 0,-1.442 -0.952,-2.394 -3.178,-2.394 h -3.92 v 8.82 h 4.144 c 2.058,0 3.22,-0.896 3.22,-2.422 z m -3.416,-1.4 c 1.092,0 1.624,0.476 1.624,1.218 0,0.728 -0.532,1.19 -1.624,1.19 h -2.24 v -2.408 z m -2.24,-3.584 h 2.1 c 1.05,0 1.498,0.476 1.498,1.134 0,0.658 -0.448,1.12 -1.498,1.12 h -2.1 z"
     fill="#000000"
     id="path17" />
</svg>
