<svg width="64" height="163" viewBox="0 0 64 163" fill="none" xmlns="http://www.w3.org/2000/svg">
<rect x="26.6455" y="37.7456" width="36.8547" height="49.7544" fill="white" stroke="black"/>
<rect x="1.11133" y="0.5" width="36.8547" height="49.9474" fill="white" stroke="black"/>
<path d="M34.6215 47.5726C34.8976 47.5726 35.1215 47.3488 35.1215 47.0726L35.1215 42.5726C35.1215 42.2965 34.8976 42.0726 34.6215 42.0726C34.3453 42.0726 34.1215 42.2965 34.1215 42.5726L34.1215 46.5726L30.1215 46.5726C29.8453 46.5726 29.6215 46.7965 29.6215 47.0726C29.6215 47.3488 29.8453 47.5726 30.1215 47.5726L34.6215 47.5726ZM13.4409 26.5992L34.2679 47.4262L34.975 46.7191L14.148 25.8921L13.4409 26.5992Z" fill="black"/>
<path d="M9.70625 4.18L6.13625 13H7.90025L8.75425 10.816H12.5062L13.3882 13H15.2502L11.6522 4.18H9.70625ZM10.5882 6.168H10.6442L11.9742 9.472H9.28625L10.5882 6.168Z" fill="black"/>
<path d="M56.134 76.078C56.134 74.818 55.308 74.118 54.244 73.922C55.196 73.768 55.868 73.068 55.868 72.074C55.868 70.632 54.916 69.68 52.69 69.68H48.77V78.5H52.914C54.972 78.5 56.134 77.604 56.134 76.078ZM52.718 74.678C53.81 74.678 54.342 75.154 54.342 75.896C54.342 76.624 53.81 77.086 52.718 77.086H50.478V74.678H52.718ZM50.478 71.094H52.578C53.628 71.094 54.076 71.57 54.076 72.228C54.076 72.886 53.628 73.348 52.578 73.348H50.478V71.094Z" fill="black"/>
</svg>
