<svg width="42" height="58" viewBox="0 0 42 58" fill="none" xmlns="http://www.w3.org/2000/svg">
<rect x="17.4419" y="25.3931" width="24.0582" height="31.875" fill="white" stroke="black"/>
<rect x="1.44141" y="1.26807" width="23.5195" height="32" fill="#FFD139" stroke="black"/>
<path d="M20.5859 29.3931C20.8621 29.3931 21.0859 29.1692 21.0859 28.8931L21.0859 24.3931C21.0859 24.1169 20.8621 23.8931 20.5859 23.8931C20.3098 23.8931 20.0859 24.1169 20.0859 24.3931L20.0859 28.3931L16.0859 28.3931C15.8098 28.3931 15.5859 28.6169 15.5859 28.8931C15.5859 29.1692 15.8098 29.3931 16.0859 29.3931L20.5859 29.3931ZM6.74215 15.7564L20.2324 29.2466L20.9395 28.5395L7.44926 15.0493L6.74215 15.7564Z" fill="black"/>
</svg>
