<svg width="42" height="58" viewBox="0 0 42 58" fill="none" xmlns="http://www.w3.org/2000/svg">
<rect x="16.7563" y="25.3931" width="24.0582" height="31.875" fill="#D3A522" stroke="black"/>
<rect x="0.755859" y="1.26807" width="23.5195" height="32" fill="#D3A522" stroke="black"/>
<path d="M19.9004 29.3931C20.1765 29.3931 20.4004 29.1692 20.4004 28.8931L20.4004 24.3931C20.4004 24.1169 20.1765 23.8931 19.9004 23.8931C19.6243 23.8931 19.4004 24.1169 19.4004 24.3931L19.4004 28.3931L15.4004 28.3931C15.1243 28.3931 14.9004 28.6169 14.9004 28.8931C14.9004 29.1692 15.1243 29.3931 15.4004 29.3931L19.9004 29.3931ZM6.0566 15.7564L19.5468 29.2466L20.254 28.5395L6.76371 15.0493L6.0566 15.7564Z" fill="black"/>
</svg>
